<?xml version="1.0" encoding="utf-8"?>
<!-- Generator: Adobe Illustrator 23.0.1, SVG Export Plug-In . SVG Version: 6.00 Build 0)  -->
<svg version="1.1" id="Layer_1" xmlns="http://www.w3.org/2000/svg" xmlns:xlink="http://www.w3.org/1999/xlink" x="0px" y="0px"
	 viewBox="0 0 230 232" style="enable-background:new 0 0 230 232;" xml:space="preserve">
<style type="text/css">
	.st0{fill:#432B8C;}
	.st1{fill:#442F8A;}
	.st2{enable-background:new    ;}
	.st3{fill:#F6FAF5;}
</style>
<title>jaredlogo</title>
<g>
	<g>
		<g>
			<circle class="st0" cx="115" cy="115" r="101.8"/>
		</g>
		<g>
			<path class="st1" d="M115,230C51.6,230,0,178.4,0,115S51.6,0,115,0s115,51.6,115,115S178.4,230,115,230z M115,6
				C54.9,6,6,54.9,6,115c0,60.1,48.9,109,109,109c60.1,0,109-48.9,109-109C224,54.9,175.1,6,115,6z"/>
		</g>
		
			<image style="overflow:visible;opacity:0.75;enable-background:new    ;" width="130" height="199" xlink:href="6AF8351.png"  transform="matrix(1 0 0 1 56 33)">
		</image>
		<g class="st2">
			
				<image style="overflow:visible;opacity:0.75;" width="127" height="199" xlink:href="6AF8353.png"  transform="matrix(1 0 0 1 56 33)">
			</image>
			<g>
				<g>
					<path class="st3" d="M106.4,148.8l0.3-6.6V78.9l-0.3-6.6c-0.3-3.1-0.9-5.3-1.9-6.4c-1-1.1-2.4-1.8-4.3-2
						c-1.9-0.2-3.4-0.4-4.7-0.4c-1.3,0-2.4-0.1-3.4-0.2V61h64.6v2.3l-6.7,0.6c-2.9,0.4-4.8,1.1-5.9,2.3c-1,1.1-1.7,3.3-2,6.4
						l-0.3,6.6v49.6c0,10.5-5,19.5-15.1,27c-10.1,7.5-21.2,11.2-33.4,11.2c-9,0-16.4-2.1-22.1-6.3c-5.7-4.2-8.5-10.1-8.5-17.6
						c0-4.8,1.8-8.9,5.3-12.3c3.5-3.4,7.8-5.1,12.6-5.1c5.7,0,10.3,1.6,13.6,4.9c3.3,3.2,5,7.5,5,12.7c0,4.6-1.1,8.2-3.3,11
						c-2.5,2.6-4.9,5.1-7.3,7.7c0,1,0.7,1.6,2,1.9c1.3,0.3,3,0.5,5,0.5c4.1,0,6.9-1.6,8.4-4.8C105.7,156.4,106.4,152.8,106.4,148.8z
						"/>
				</g>
			</g>
		</g>
	</g>
</g>
</svg>
