<svg id="visual" viewBox="0 0 960 50" width="960" height="50" xmlns="http://www.w3.org/2000/svg" xmlns:xlink="http://www.w3.org/1999/xlink" version="1.1"><rect x="0" y="0" width="960" height="50" fill="#FFFFFF"></rect><path d="M0 23L26.7 24.3C53.3 25.7 106.7 28.3 160 29C213.3 29.7 266.7 28.3 320 28.2C373.3 28 426.7 29 480 29.7C533.3 30.3 586.7 30.7 640 30.5C693.3 30.3 746.7 29.7 800 27.5C853.3 25.3 906.7 21.7 933.3 19.8L960 18L960 51L933.3 51C906.7 51 853.3 51 800 51C746.7 51 693.3 51 640 51C586.7 51 533.3 51 480 51C426.7 51 373.3 51 320 51C266.7 51 213.3 51 160 51C106.7 51 53.3 51 26.7 51L0 51Z" fill="#fBfBfB" stroke-linecap="round" stroke-linejoin="miter"></path></svg>