<?xml version="1.0" encoding="utf-8"?>
<!-- Generator: Adobe Illustrator 23.0.1, SVG Export Plug-In . SVG Version: 6.00 Build 0)  -->
<svg version="1.1" id="Layer_1" xmlns="http://www.w3.org/2000/svg" xmlns:xlink="http://www.w3.org/1999/xlink" x="0px" y="0px"
	 viewBox="0 0 1333 1000" style="enable-background:new 0 0 1333 1000;" xml:space="preserve">
<style type="text/css">
	.st0{fill:#E2F3F5;}
	.st1{fill:#FFFFFF;}
	.st2{fill:#81A358;}
	.st3{fill:#4E9EAD;}
	.st4{fill:#458489;}
	.st5{fill:#68B4B7;}
	.st6{fill:#F1A34F;}
	.st7{filter:url(#Adobe_OpacityMaskFilter);}
	.st8{filter:url(#Adobe_OpacityMaskFilter_1_);}
	.st9{mask:url(#SVGID_1_);fill:url(#SVGID_2_);}
	.st10{fill:#FFB973;}
	.st11{fill:#82B378;}
	.st12{fill:#A8D29F;}
	.st13{fill:#D86713;}
	.st14{fill:#66658C;}
	.st15{fill:#FCC68B;}
	.st16{fill:#E38A42;}
	.st17{fill:#F7A669;}
	.st18{fill:#F4EAE1;}
	.st19{fill:#E6DCD4;}
	.st20{fill:#B07F82;}
	.st21{fill:#25354D;}
	.st22{fill:#2F4563;}
	.st23{fill:#EDABAF;}
	.st24{fill:#8181D1;}
	.st25{fill:#261D19;}
	.st26{fill:#9191A7;}
	.st27{fill:#424242;}
	.st28{fill:#FF8133;}
	.st29{fill:#363636;}
	.st30{fill:#E1F3F5;}
</style>
<ellipse class="st0" cx="666" cy="814" rx="562" ry="17"/>
<g>
	<path class="st0" d="M328.49,764.49c0,0-114.28-1.36-164.62-82.99c-50.34-81.63,51.7-148.3,43.54-216.32
		c-8.16-68.03-39.46-156.46,59.86-190.47c99.32-34.01,134.69,5.44,174.15-70.75c39.46-76.19,72.11-106.12,160.54-96.6
		c88.43,9.52,106.12,57.14,175.51,35.37c69.39-21.77,156.46-43.54,216.32,0c59.86,43.54,48.98,110.2,93.88,127.89
		c44.9,17.69,136.05,57.14,102.04,152.38c-34.01,95.23-38.09,121.09-6.8,156.46c31.29,35.37,64.65,84.78,13.6,141.49
		c-24.49,27.21-88.43,36.73-88.43,36.73L328.49,764.49z"/>
</g>
<g>
	<rect x="701.16" y="176.19" class="st1" width="132.48" height="132.48"/>
	<rect x="853.52" y="176.19" class="st1" width="132.48" height="132.48"/>
	<rect x="701.16" y="328.54" class="st1" width="132.48" height="132.48"/>
	<rect x="853.52" y="328.54" class="st1" width="132.48" height="132.48"/>
</g>
<g>
	<g>
		
			<rect x="1137.62" y="641.15" transform="matrix(0.9977 -0.0674 0.0674 0.9977 -44.3233 78.3127)" class="st2" width="1.29" height="109.56"/>
	</g>
	<g>
		
			<rect x="1113.73" y="451.63" transform="matrix(0.9982 -0.0604 0.0604 0.9982 -34.1893 68.3505)" class="st2" width="1.29" height="297.03"/>
	</g>
	<g>
		<rect x="1130.8" y="408.86" class="st2" width="1.29" height="345.88"/>
	</g>
	<g>
		
			<rect x="1042.06" y="648.04" transform="matrix(0.022 -0.9998 0.9998 0.022 471.932 1779.7889)" class="st2" width="207.14" height="1.29"/>
	</g>
	<g>
		<path class="st3" d="M1130.69,479.61c0,0-35.95-30.66-25.28-61.26c10.67-30.6,63.35-14.04,46.61,41.17
			C1152.02,459.51,1146.58,473.75,1130.69,479.61z"/>
	</g>
	<g>
		<g>
			<polygon class="st0" points="1141.67,464.18 1140.39,464.07 1143.17,431.24 1144.88,426.37 			"/>
		</g>
	</g>
	<g>
		<g>
			<polygon class="st0" points="1123.98,464.97 1122.69,464.94 1123.74,413.06 1124.86,421.32 			"/>
		</g>
	</g>
	<g>
		<g>
			<polygon class="st0" points="1117.33,456.51 1111.06,420.91 1113.33,426.37 1118.6,456.29 			"/>
		</g>
	</g>
	<g>
		<g>
			<path class="st4" d="M1107.97,529.93c0,0-31.16-40.33-14.94-68.83c16.22-28.5,120.61-4.94,73.42,97.92
				c-47.19,102.86-83.66,33.67-83.66,33.67L1107.97,529.93z"/>
		</g>
	</g>
	<g>
		<g>
			<polygon class="st0" points="1135.26,603.39 1134.02,603.06 1162.33,496.54 1165.7,488.85 			"/>
		</g>
	</g>
	<g>
		<g>
			<polygon class="st0" points="1126.31,593.25 1125.02,593.19 1130.47,473.14 1132.07,466.36 			"/>
		</g>
	</g>
	<g>
		<g>
			<polygon class="st0" points="1113.73,553.87 1108.38,468.03 1110.12,475.23 1115.01,553.79 			"/>
		</g>
	</g>
	<g>
		<g>
			<path class="st3" d="M1131.45,566.19c0,0-4.7-69.2-44.39-43.71c-39.7,25.49-49.51,125.41,44.39,155.77V566.19z"/>
		</g>
	</g>
	<g>
		<g>
			<polygon class="st0" points="1137.67,632.71 1097.47,535.57 1095.46,527.36 1138.86,632.22 			"/>
		</g>
	</g>
	<g>
		<g>
			<path class="st0" d="M1144.21,639.56c-3.6-0.13-9.54-4.62-18.15-13.72c-6.71-7.09-14.97-16.94-24.56-29.27
				c-16.31-20.98-26.31-35.5-26.46-35.71l-3.63-7.39c0.15,0.21,14.82,21.37,31.1,42.32c27.1,34.85,37.65,42.34,41.73,42.49
				L1144.21,639.56z"/>
		</g>
	</g>
	<g>
		<g>
			<path class="st0" d="M1150.23,652.61c-8.27,0-25.2-9.2-50.31-27.33c-18.64-13.46-35.09-27.1-35.26-27.23l5.16,2.54
				c6.26,5.08,61.25,50.74,80.42,50.74V652.61z"/>
		</g>
	</g>
	<g>
		<g>
			<path class="st0" d="M1094.09,648.18c0.99,0.54,6.99,1.54,22.48,4.2c8.63,1.49,29.68,4.97,38.72,5.19l-0.03,1.29
				c-9.25-0.22-30.71-3.79-39.51-5.31c-7.14-1.24-14.39-2.58-19.88-3.69c-8.78-1.77-9.09-2.1-9.29-2.32L1094.09,648.18z"/>
		</g>
	</g>
	<g>
		<g>
			<path class="st5" d="M1144.18,718c0,0-32.8-34.56-25.12-87.67c7.68-53.1,67.44-53.04,67.01-1.46
				C1185.65,680.46,1174.84,694.81,1144.18,718z"/>
		</g>
	</g>
	<g>
		<g>
			<polygon class="st0" points="1146.76,713.81 1145.63,713.5 1162,604.94 1164.32,597.64 1147.96,706.68 1179.43,617.06 
				1179.67,620.36 			"/>
		</g>
	</g>
	<g>
		<g>
			<polygon class="st0" points="1143.85,714.63 1126.28,630.62 1126.13,624.15 1143.56,706.84 1138.9,602.14 1140.8,612.84 
				1145.04,714.29 			"/>
		</g>
	</g>
	<polygon class="st6" points="1175.41,748.42 1154.65,814.59 1108.24,814.59 1087.48,748.42 	"/>
	<defs>
		<filter id="Adobe_OpacityMaskFilter" filterUnits="userSpaceOnUse" x="1087.48" y="748.42" width="87.93" height="66.17">
			<feFlood  style="flood-color:white;flood-opacity:1" result="back"/>
			<feBlend  in="SourceGraphic" in2="back" mode="normal"/>
		</filter>
	</defs>
	<mask maskUnits="userSpaceOnUse" x="1087.48" y="748.42" width="87.93" height="66.17" id="SVGID_1_">
		<g class="st7">
			<defs>
				<filter id="Adobe_OpacityMaskFilter_1_" filterUnits="userSpaceOnUse" x="1087.48" y="748.42" width="87.93" height="66.17">
					<feFlood  style="flood-color:white;flood-opacity:1" result="back"/>
					<feBlend  in="SourceGraphic" in2="back" mode="normal"/>
				</filter>
			</defs>
			<mask maskUnits="userSpaceOnUse" x="1087.48" y="748.42" width="87.93" height="66.17" id="SVGID_1_">
				<g class="st8">
				</g>
			</mask>
			<linearGradient id="SVGID_2_" gradientUnits="userSpaceOnUse" x1="1087.4805" y1="781.5088" x2="1175.4102" y2="781.5088">
				<stop  offset="0" style="stop-color:#FFFFFF"/>
				<stop  offset="0.9948" style="stop-color:#000000"/>
			</linearGradient>
			<path class="st9" d="M1175.41,748.42c0,0-45.71,7.21-45.71,66.17h-21.46l-20.76-66.17H1175.41z"/>
		</g>
	</mask>
	<path class="st10" d="M1175.41,748.42c0,0-45.71,7.21-45.71,66.17h-21.46l-20.76-66.17H1175.41z"/>
</g>
<g>
	<g>
		<path class="st11" d="M257.96,710.46c0,0-17.29-20.17-1.07-32.98c0,0,11.85-7.17,21.51-6.59c0,0-13.69,22.96-9.26,25.24
			c4.43,2.29,13.41-26.68,13.41-26.68s26.97-2.62,35.64,1.55c0,0-23.05,18.86-18.19,19.98c4.85,1.13,29.75-17.39,29.75-17.39
			s25.1,4.27,23.76,19.58c-1.34,15.31-9.98,20.04-13.79,19.63c-3.8-0.41-26.03-8.89-26.52-5.78c-0.48,3.11,12.9,13.29,22.27,13.77
			c0,0-17.7,19.51-29.45,13.88c-11.76-5.63-12.76-14.56-20.09-17.91c-7.33-3.35-13.58-3.34-10.56,0.08
			c3.03,3.41,16.29,6.73,20.48,14.15c4.19,7.41,7.96,12.41-4.21,10.58c-12.16-1.83-31.94-10.73-32.81-20.93
			C257.96,710.46,257.96,710.46,257.96,710.46z"/>
		<g>
			<path class="st11" d="M341.17,693.6c0,0-68.16-2.63-83.21,16.87c0,0-3.33,9.97-13.58,19.05l-1.6,4.35
				c0,0,11.81-12.46,16.04-13.21C258.83,720.66,252.22,696.51,341.17,693.6z"/>
			<path class="st11" d="M244.39,729.51c0,0-14.63,10.82-15.65,30.15l2.65,0.24c0,0,4.67-19.99,13.12-27.8
				C252.96,724.28,244.39,729.51,244.39,729.51z"/>
		</g>
	</g>
	<g>
		<path class="st12" d="M197.52,685.1c0,0,27.5-15.4,14.66-36.3c0,0-10.27-12.83-21.27-16.13c0,0,5.87,31.17,0,31.9
			c-5.87,0.73-4.03-35.2-4.03-35.2s-28.97-13.93-40.33-12.83c0,0,17.96,30.43,12.1,29.7c-5.86-0.73-26.03-31.54-26.03-31.54
			s-29.7-5.5-34.47,12.1c-4.77,17.6,2.93,26.4,7.33,27.5c4.4,1.1,32.63,0.73,31.9,4.4c-0.73,3.66-19.8,9.53-30.43,6.23
			c0,0,11.73,28.97,27.13,27.5c15.4-1.47,20.17-11,29.7-11.74c9.53-0.73,16.5,1.84,11.73,4.4c-4.77,2.56-20.9,0.84-28.6,7.39
			c-7.7,6.55-13.93,10.58,0.37,13.51c14.3,2.93,39.97,1.1,45.1-9.9C197.52,685.1,197.52,685.1,197.52,685.1z"/>
		<g>
			<path class="st11" d="M111.72,632.3c0,0,77,24.94,85.8,52.8c0,0-0.37,12.46,7.33,26.77v5.5c0,0-8.06-18.7-12.47-21.27
				C192.39,696.1,209.62,671.9,111.72,632.3z"/>
			<path class="st11" d="M204.85,711.87c0,0,11.88,18.03,5.11,39.98l-3.06-0.82c0,0,2.97-24.18-3.25-36.34
				C197.44,702.53,204.85,711.87,204.85,711.87z"/>
		</g>
	</g>
	<g>
		<path class="st12" d="M241.27,663.86c0,0-36.25-20.3-19.33-47.85c0,0,13.53-16.92,28.03-21.27c0,0-7.73,41.08,0,42.05
			c7.74,0.97,5.32-46.4,5.32-46.4s38.18-18.36,53.17-16.92c0,0-23.68,40.12-15.95,39.15c7.73-0.97,34.31-41.56,34.31-41.56
			s39.15-7.25,45.44,15.95c6.28,23.2-3.87,34.8-9.67,36.25c-5.8,1.45-43.02,0.97-42.05,5.8c0.97,4.83,26.1,12.57,40.12,8.21
			c0,0-15.47,38.18-35.77,36.25c-20.3-1.94-26.58-14.5-39.15-15.47c-12.57-0.97-21.75,2.42-15.47,5.8
			c6.28,3.38,27.55,1.11,37.7,9.74c10.15,8.63,18.36,13.95-0.48,17.81c-18.85,3.86-52.68,1.45-59.45-13.05
			C241.27,663.86,241.27,663.86,241.27,663.86z"/>
		<g>
			<path class="st11" d="M354.37,594.26c0,0-101.5,32.87-113.1,69.6c0,0,0.48,16.43-9.67,35.28v7.25c0,0,10.63-24.65,16.43-28.03
				C248.04,678.36,225.32,646.46,354.37,594.26z"/>
			<path class="st11" d="M231.6,699.14c0,0-15.65,23.77-6.73,52.7l4.03-1.08c0,0-3.91-31.87,4.28-47.89
				C241.37,686.84,231.6,699.14,231.6,699.14z"/>
		</g>
	</g>
	<path class="st6" d="M240.05,814.59c39.21,0,71-31.79,71-71.01H169.04C169.04,782.8,200.83,814.59,240.05,814.59z"/>
	<path class="st10" d="M257.52,814.05c-2.89,0.36-5.83,0.54-8.82,0.54c-39.21,0-71-31.79-71-71.01h17.64
		C195.34,779.82,222.47,809.7,257.52,814.05z"/>
	<rect x="166.71" y="743.59" class="st13" width="145.96" height="2.18"/>
</g>
<rect x="416.89" y="733.37" class="st14" width="558.28" height="13.71"/>
<path class="st15" d="M696.03,443.16c-392.23,0-343.47,113.51-343.47,113.51l64.53,143.12h278.93h278.93l64.53-143.12
	C1039.5,556.66,1088.26,443.16,696.03,443.16z"/>
<polygon class="st14" points="416.89,747.08 399.21,816.58 406.81,816.58 432.31,747.08 "/>
<polygon class="st14" points="975.17,747.08 992.85,816.58 985.25,816.58 959.75,747.08 "/>
<rect x="407.02" y="654.95" class="st16" width="578.02" height="32.9"/>
<path class="st17" d="M988.27,740.22l102.03-162.48c9.03-14.37,4.69-33.34-9.68-42.37l0,0c-14.06-8.83-32.62-4.59-41.45,9.47
	l-84.51,134.58H437.96l-84.51-134.58c-8.83-14.06-27.39-18.31-41.45-9.47l0,0c-14.37,9.03-18.71,27.99-9.68,42.37l102.03,162.48
	v0.01H988.27z"/>
<g>
	<path class="st18" d="M514.29,658.65c-1.47,0.52-3.02,0.93-4.61,1.19l-66.75,10.73c-14.03,2.23-27.23-7.3-29.48-21.33l-13.06-81.44
		c-2.25-14.03,7.29-27.23,21.31-29.48l9.48-1.53l57.27-9.18c14.03-2.25,27.23,7.31,29.46,21.33l13.08,81.44
		C532.98,642.81,525.72,654.56,514.29,658.65z"/>
	<path class="st19" d="M514.29,658.65c-1.47,0.52-3.02,0.93-4.61,1.19l-66.75,10.73c-14.03,2.23-27.23-7.3-29.48-21.33l-13.06-81.44
		c-2.25-14.03,7.29-27.23,21.31-29.48l9.48-1.53c0,0.02,0.02,0.02,0.02,0.02S434.43,647.44,514.29,658.65z"/>
</g>
<path class="st20" d="M636.42,663c0,0-4.46-6.75-5.18-10.72c-0.73-3.97-2.96-6.23-2.96-6.23s-16.89-2.46-23.38-8.48
	c-6.49-6.02-20.24-22.43-26.73-17.52s4.7,25.61,11.33,31.86c6.62,6.25,15.59,17.21,23.74,16.4
	C621.39,667.5,632.48,663.64,636.42,663z"/>
<path class="st21" d="M636.42,661.96l-8.15-15.91c0,0,38.99-7.15,50.4-14.01c2.86-1.72,5.7-3.45,8.35-5.08
	c6.02-3.72,11.02-6.93,12.78-8.43c5.63-4.79,28.2-20.78,34.3-26.65c6.09-5.87,13.29-2.29,22.8-2.2c9.51,0.1,43.93,9.64,54.23,11
	c10.3,1.36,47.49,8.28,47.49,8.28C852.08,626.85,636.42,661.96,636.42,661.96z"/>
<path class="st22" d="M777.29,666.21c15.77,5.54,76.05,9.99,83.58,8.3c7.52-1.69,22.53-8.93,33.4-20.75
	c10.87-11.82-33.46-45.38-33.46-45.38s-20.98,3.02-26.38,3.43c-5.52,0.42-36.77,2.93-51.84,4.38c-15.07,1.45-44.67,0.58-50.54,3.16
	c-5.87,2.58-39.81,14.08-50.92,17.67c-11.11,3.59-83.29,16.8-83.29,16.8s-1.24,9.78,5.15,17.29c0,0,31.64-0.49,48.61-0.37"/>
<path class="st23" d="M602.98,671.12c0,0-2.69-7.63-2.44-11.66c0.25-4.02-0.98-5.95-0.98-5.95s-16.18-7.28-21.02-14.69
	c-4.84-7.41-14.21-26.66-21.7-23.46c-7.49,3.2-1.63,25.99,3.29,33.66c4.92,7.67,7.95,28.08,16.06,29.26
	C584.29,679.46,599.01,670.78,602.98,671.12z"/>
<path class="st22" d="M907.97,594.95c0,0,26.52,60.18-14.65,74.78c-32.84,11.64-93.37,0.92-93.37,0.92l37.24-58.68L907.97,594.95z"
	/>
<path class="st23" d="M854.9,441.63l-19.64,20.21c-0.18-3.71-1.54-8.22-2.94-11.99c-0.69-1.84-1.39-3.51-1.95-4.8
	c-0.75-1.7-1.27-2.75-1.27-2.75l17.52-18.52L854.9,441.63z"/>
<path class="st24" d="M834.83,566.76c0,9.75,4.11,30.06,1.75,44.84c0,0,68.86,7.99,75.78-4.04c0,0-8.54-38.68-12.58-48.38
	c-4.03-9.69-12.47-67.69-16.09-77.55c-3.62-9.86-12.15-19.4-17.37-26.24c-4.66-6.11-13.15-17.48-13.15-17.48l-18.35,18.59"/>
<path class="st23" d="M822.92,369.89c-9.09,0.61-28.61,7.47-28.93,31.77c0,0,1.47,6.37,3.62,11.27c2.15,4.89-0.66,20.38,0.61,20.97
	c1.27,0.6,6.28,0.98,6.28,0.98s7.16,15.73,12.88,14.93c5.72-0.8,26.92-7.79,34.8-29.3C860.06,399,859.62,367.44,822.92,369.89z"/>
<path class="st25" d="M794,401.67c0,0,15.83,8.31,30.62,8.64c14.79,0.34,26.92,24.05,26.92,24.05s17.91-40.18-2.6-60.57
	C828.48,353.46,787.6,374.14,794,401.67z"/>
<path class="st20" d="M844.42,433.82c-0.28,0.46-7.48,12.26-12.09,16.03c-0.69-1.84-1.39-3.51-1.95-4.8
	C830.38,445.06,840.67,438.92,844.42,433.82z"/>
<rect x="696.13" y="613.76" transform="matrix(-0.9826 0.1855 -0.1855 -0.9826 1591.9017 1087.1008)" class="st26" width="97.92" height="8.52"/>
<rect x="624.6" y="584.25" transform="matrix(-0.5655 -0.8247 0.8247 -0.5655 569.1052 1476.8361)" class="st26" width="97.92" height="8.52"/>
<path class="st23" d="M716.16,619.15c-0.48-2.14,0-5.71,6.73-9.31c6.73-3.61,21.28-11.81,26.39-12.01c5.11-0.2,15.19,0.61,17.26,0.6
	c2.07-0.01-3.24,12.17-3.24,12.17L716.16,619.15z"/>
<path class="st23" d="M764.18,599.36c0,0,28.07-11.05,32.63-13.25c4.56-2.2,25.82-9.35,27.7-10.29
	c1.89-0.94,10.77-54.02,11.56-67.38c0.79-13.36,1.57-41.65,16.66-40.4c15.09,1.26,18.71,11.16,16.82,30.65
	c-1.89,19.49-13.05,89.28-17.76,91.64c-4.72,2.36-58.85,14.47-87.39,20.16C737.09,615.94,764.18,599.36,764.18,599.36z"/>
<path class="st24" d="M834.53,512.59c0,0,21.75,4.06,34.28,5.32c0,0,15.6-44.44-5.64-51.54C838,457.96,832.38,492.4,834.53,512.59z"
	/>
<path class="st18" d="M918.25,654.36c1.31,6.85,5.35,13.15,11.7,17.16c12.17,7.7,28.28,4.06,35.97-8.12l60.78-96.25
	c6.79-10.77,4.74-24.58-4.23-32.96l-0.01,0c-1.17-1.11-2.48-2.11-3.89-3.01c-2.18-1.37-4.47-2.38-6.82-3.05
	c-10.83-3.07-22.83,1.17-29.15,11.17l-60.78,96.25C918.14,641.38,917.06,648.1,918.25,654.36z"/>
<path class="st19" d="M918.25,654.36c1.31,6.85,5.35,13.15,11.7,17.16c12.17,7.7,28.28,4.06,35.97-8.12l60.78-96.25
	c6.79-10.77,4.74-24.58-4.23-32.96l-0.01,0C1022.46,534.19,996.96,617.57,918.25,654.36z"/>
<g>
	<path class="st27" d="M502.18,671.96c0.65-2.57-3.75-5.42-6.46-6.33c-10.79-3.3-3.33-11.53-6.33-22.01
		c-3.27-12.89-14.05-20.87-23.73-24.25c11.76,3.55,22.72,13.4,24.8,24.77c1.02,5.35,0.64,9.96,0.37,11.3
		c-0.55,2.7-0.17,6.34,2.15,7.95c1.57,1.12,7.32,1.65,9.79,6.2c1.4,2.95-0.29,4.8-3.43,5.74c-7.84,2.29-40.51,0.5-45.92-4.32
		C458.34,675.01,500.6,678.31,502.18,671.96z"/>
	<g>
		<path class="st28" d="M472.2,599.34c0,0,17.61-6.6,26.86-7.26c9.25-0.66,11.95-5.98,11.95-5.98l30.66,3.6c0,0-1.64,5.02,0,9.28
			c1.64,4.26,7.88,9.25-1.11,25.09c-8.99,15.85-12.34,19.67-12.28,35.37c0.04,11.88,9.09,11.89,8.21,14.53
			c-0.88,2.64-13.43,2.64-15.63,0c-2.2-2.64-30.82-1.76-36.98-1.76c-6.16,0-27.52,2.64-32.14-2.42
			C447.1,664.72,435.39,616.78,472.2,599.34z"/>
		<path class="st28" d="M517.76,554.4c2.4-0.86,4.97-1.13,7.51-0.88c7.45,0.73,27.68,4.34,23.53,21.83
			c-5.06,21.35-21.79,23.77-30.82,18.05c-9.03-5.72-11.67-17.39-10.57-24.66C508.33,562.73,510.9,556.86,517.76,554.4z"/>
		<path class="st28" d="M511.16,540.28c5.72,3.08,10.74,13.22,10.74,13.22l-11.95,7.41C509.96,560.91,505.44,537.19,511.16,540.28z"
			/>
		<path class="st28" d="M557.1,550.46c7.19,0.39-7.88,18.38-7.88,18.38l-8.67-11.15C540.55,557.69,549.9,550.07,557.1,550.46z"/>
		<path class="st28" d="M490.32,655.33c0,0-1.76,7.96,4.55,9.48c6.31,1.52,12.47,8.42,3.08,10.33c-9.39,1.91-39.74,0.1-44.52-4.13
			l12.24-51.63C465.67,619.38,493.99,627.89,490.32,655.33z"/>
		<path class="st28" d="M515.07,667.82c10.66,9.85-3.61,8.79-6.81,8.08c-3.19-0.71-2.54-3.77-4.5-9.33
			c-1.96-5.56-6.25-54.24-6.25-54.24l21.45,0.88C519.71,618.64,504.41,657.97,515.07,667.82z"/>
	</g>
	<path class="st27" d="M505.05,668.94c1.13,4.15,1.01,5.84,3.32,6.42c2.19,0.49,6.76,0.71,8.88-0.29c2.64-1.23,0.19-4.2-1.89-6.24
		c-12.14-12.14,4.31-49.26,3.6-55.63c0.83,5.55-13,42.3-4.34,53.34c1.15,1.36,5.42,4.7,4.83,7.56c-0.8,3.63-9.44,2.94-11.9,2.14
		c-2.43-0.87-2.32-2.79-4.48-10.2c-2.23-10.23-4.8-43.22-5.55-53.72C503.66,668.4,503.21,662.13,505.05,668.94z"/>
	<path class="st29" d="M518.59,564.95c2.53,0.61,1.98,3.19,1.98,3.19c-0.5,1.54-2.15,2.04-3.3,1.65c-1.15-0.39-1.6-1.27-1.76-2.26
		C515.34,566.54,516.06,564.34,518.59,564.95z"/>
	<path class="st29" d="M538.18,570.02c2.53,0.6,1.98,3.19,1.98,3.19c-0.5,1.54-2.15,2.04-3.3,1.65c-1.16-0.38-1.6-1.27-1.76-2.26
		C534.94,571.62,535.65,569.41,538.18,570.02z"/>
	<path class="st29" d="M523.2,575.9c1.36-0.17,4.01,0.84,5.15,1.31c0.56,0.23,0.83,0.91,0.53,1.44c-0.85,1.49-4.34,2.69-4.58,2.6
		C524,581.15,521.43,576.12,523.2,575.9z"/>
</g>
<rect x="201" y="806" class="st6" width="76" height="9"/>
<rect x="400" y="277" class="st1" width="126" height="146"/>
<polygon class="st30" points="406.9,415 519.1,284.99 519.1,415 "/>
<path d="M794.92,414.96c1.34-0.45,2.69-0.91,4.07-1.38c-0.06-0.2-0.09-0.34-0.14-0.49c-0.36-1.08-0.74-2.16-1.09-3.25
	c-0.24-0.76,0.2-1.4,0.99-1.48c0.52-0.05,0.95,0.24,1.14,0.8c0.34,1,0.68,2.01,1.02,3.01c0.05,0.14,0.1,0.29,0.16,0.47
	c0.97-0.28,1.91-0.55,2.84-0.83c6.82-2.03,13.63-4.06,20.46-6.08c1.64-0.49,3.29-0.98,4.97-1.33c1.81-0.38,3.49-0.11,5.04,0.8
	c2.75,1.63,5.57,3.16,8.35,4.75c0.33,0.19,0.63,0.45,0.87,0.74c0.3,0.36,0.29,0.81,0.03,1.23c-0.25,0.41-0.65,0.68-1.14,0.63
	c-0.45-0.05-0.93-0.15-1.31-0.36c-2.57-1.43-5.14-2.86-7.68-4.34c-1.58-0.93-3.32-1-5.13-0.59c-1.91,0.44-3.8,0.98-5.7,1.48
	c-0.49,0.13-0.99,0.24-1.47,0.41c-0.7,0.26-1.26,0.64-1.43,1.42c-0.07,0.31-0.42,0.67-0.74,0.84c-0.93,0.48-1.88,0.96-2.87,1.27
	c-4.38,1.39-8.77,2.72-13.16,4.08c-0.13,0.04-0.26,0.09-0.45,0.15c0.04,0.16,0.08,0.32,0.13,0.47c0.99,2.92,1.97,5.84,2.96,8.76
	c0.26,0.77-0.06,1.39-0.81,1.54c-0.47,0.1-0.9-0.05-1.12-0.42c-0.11-0.18-0.18-0.38-0.25-0.57c-1.32-3.89-2.63-7.79-3.95-11.69
	c-0.23-0.68-0.11-0.64-0.89-0.38c-0.14,0.05-0.29,0.1-0.48,0.16c0.37,1.11,0.73,2.17,1.11,3.29c-1.01,0.34-1.97,0.67-2.93,0.99
	C795.85,417.7,795.39,416.33,794.92,414.96z"/>
<path class="st23" d="M828.07,410.17c-0.25-2.83,2.4-7.42,7.46-4.1c5.06,3.32,0.4,17.44-3.54,16.56
	C828.06,421.75,828.33,413.09,828.07,410.17z"/>
<path class="st28" d="M413.47,566.59c10.1,2.25,4.08,27.6,10.85,63.05c6.77,35.45,28.13,40.99,28.13,40.99s-9.49-15.72-8.45-32.15
	c0.81-12.84,16.37-47.88,0.99-70.78c-11.88-17.69-32.81-1.63-32.81-1.63L413.47,566.59z"/>
</svg>
