<?xml version="1.0" encoding="UTF-8"?>
<svg width="821px" height="600px" viewBox="0 0 821 600" version="1.1" xmlns="http://www.w3.org/2000/svg" xmlns:xlink="http://www.w3.org/1999/xlink">
    <!-- Generator: Sketch 59.1 (86144) - https://sketch.com -->
    <title></title>
    <desc>Created with Sketch.</desc>
    <defs>
        <polygon id="path-1" points="0.245426277 0 794.770445 0 794.770445 24.0332336 0.245426277 24.0332336"></polygon>
        <polygon id="path-3" points="0 513.180223 799.718555 513.180223 799.718555 0.464406896 0 0.464406896"></polygon>
    </defs>
    <g id="working-from-home-on-sofa" stroke="none" stroke-width="1" fill="none" fill-rule="evenodd">
        <g id="Group-87" transform="translate(20.000000, 36.000000)">
            <g id="Group-86">
                <g id="Group-3" transform="translate(4.948110, 489.146990)">
                    <mask id="mask-2" fill="white">
                        <use xlink:href="#path-1"></use>
                    </mask>
                    <g id="Clip-2"></g>
                    <path d="M794.770586,12.0166168 C794.770586,18.6533236 616.91005,24.0332336 397.508006,24.0332336 C178.105962,24.0332336 0.245426277,18.6533236 0.245426277,12.0166168 C0.245426277,5.37991003 178.105962,0 397.508006,0 C616.91005,0 794.770586,5.37991003 794.770586,12.0166168" id="Fill-1" fill="#E2F3F5" mask="url(#mask-2)"></path>
                </g>
                <path d="M163.879579,466.170582 C163.879579,466.170582 83.094608,465.210667 47.5120391,407.508993 C11.930177,349.80732 84.0580758,302.685218 78.2878722,254.599665 C72.5176685,206.51482 50.3974943,144.005086 120.602699,119.962663 C190.807903,95.9209471 215.810705,123.810808 243.701083,69.9551588 C271.591461,16.1002166 294.672276,-5.05680441 357.183168,1.67532844 C419.694061,8.40746129 432.195815,42.0660049 481.243607,26.6790806 C530.289984,11.2921562 591.840237,-4.09547506 634.155063,26.6790806 C676.469183,57.4536362 668.776992,104.576446 700.512758,117.077261 C732.249232,129.580905 796.684233,157.469352 772.640657,224.788559 C748.597082,292.105647 745.713747,310.380093 767.832508,335.382432 C789.951268,360.386891 813.529014,395.312127 777.449514,435.398854 C760.138196,454.631096 714.939328,461.363935 714.939328,461.363935 L163.879579,466.170582 Z" id="Fill-4" fill="#E2F3F5"></path>
                <mask id="mask-4" fill="white">
                    <use xlink:href="#path-3"></use>
                </mask>
                <g id="Clip-7"></g>
                <polygon id="Fill-6" fill="#FFFFFF" mask="url(#mask-4)" points="427.315282 143.969672 520.961806 143.969672 520.961806 50.3248843 427.315282 50.3248843"></polygon>
                <polygon id="Fill-8" fill="#FFFFFF" mask="url(#mask-4)" points="535.008785 143.969672 628.655309 143.969672 628.655309 50.3248843 535.008785 50.3248843"></polygon>
                <polygon id="Fill-9" fill="#FFFFFF" mask="url(#mask-4)" points="427.315282 251.661178 520.961806 251.661178 520.961806 158.01639 427.315282 158.01639"></polygon>
                <polygon id="Fill-10" fill="#FFFFFF" mask="url(#mask-4)" points="535.008785 251.661178 628.655309 251.661178 628.655309 158.01639 535.008785 158.01639"></polygon>
                <polygon id="Fill-11" fill="#81A358" mask="url(#mask-4)" points="738.442994 456.373929 733.22203 379.103549 734.130362 379.042052 739.351325 456.312433"></polygon>
                <polygon id="Fill-12" fill="#81A358" mask="url(#mask-4)" points="725.280949 454.813183 712.608838 245.238438 713.51717 245.183303 726.189281 454.758048"></polygon>
                <polygon id="Fill-13" fill="#81A358" mask="url(#mask-4)" points="731.012628 459.272267 731.923081 459.272267 731.923081 214.785716 731.012628 214.785716"></polygon>
                <polygon id="Fill-14" fill="#81A358" mask="url(#mask-4)" points="740.288215 457.513599 739.377762 457.493807 742.696531 311.113036 743.606983 311.133535"></polygon>
                <path d="M730.934589,264.79633 C730.934589,264.79633 705.519681,243.124008 713.063428,221.494805 C720.606469,199.865601 757.843828,211.5712 746.013603,250.593396 C746.013603,250.593396 742.168214,260.658373 730.934589,264.79633" id="Fill-15" fill="#4E9EAD" mask="url(#mask-4)"></path>
                <polygon id="Fill-16" fill="#E2F3F5" mask="url(#mask-4)" points="738.697044 253.893159 737.789419 253.816111 739.75806 230.61061 740.963985 227.166082"></polygon>
                <polygon id="Fill-17" fill="#E2F3F5" mask="url(#mask-4)" points="726.190058 254.448821 725.280313 254.430443 726.023236 217.755022 726.814934 223.597218"></polygon>
                <polygon id="Fill-18" fill="#E2F3F5" mask="url(#mask-4)" points="721.489141 248.470908 717.059876 223.304578 718.66377 227.166153 722.386163 248.312571"></polygon>
                <path d="M714.873235,300.367071 C714.873235,300.367071 692.847782,271.858708 704.313261,251.712496 C715.778032,231.565578 789.568496,248.219902 756.209043,320.926088 C722.849589,393.632275 697.071348,344.729593 697.071348,344.729593 L714.873235,300.367071 Z" id="Fill-19" fill="#458489" mask="url(#mask-4)"></path>
                <polygon id="Fill-20" fill="#E2F3F5" mask="url(#mask-4)" points="734.165847 352.292286 733.286497 352.058315 753.298776 276.762901 755.684472 271.333511"></polygon>
                <polygon id="Fill-21" fill="#E2F3F5" mask="url(#mask-4)" points="727.83785 345.12706 726.928104 345.085355 730.781269 260.2233 731.910852 255.435032"></polygon>
                <polygon id="Fill-22" fill="#E2F3F5" mask="url(#mask-4)" points="718.944682 317.293748 715.162912 256.613367 716.392871 261.705585 719.853013 317.237199"></polygon>
                <path d="M731.468137,325.99908 C731.468137,325.99908 728.149369,277.085795 700.088635,295.104358 C672.028607,313.121508 665.089943,383.751647 731.468137,405.213325 L731.468137,325.99908 Z" id="Fill-23" fill="#4E9EAD" mask="url(#mask-4)"></path>
                <polygon id="Fill-24" fill="#E2F3F5" mask="url(#mask-4)" points="735.866088 373.018334 707.449797 304.353972 706.032517 298.548533 736.707267 372.670559"></polygon>
                <path d="M740.493915,377.862798 C737.949172,377.770199 733.753881,374.597106 727.666999,368.163268 C722.923175,363.148804 717.082991,356.187649 710.307614,347.474188 C698.77993,332.647096 691.708373,322.379958 691.60517,322.230103 L689.042049,317.006409 C689.145252,317.155557 699.515785,332.11059 711.027917,346.917889 C730.182759,371.551954 737.642389,376.847747 740.527138,376.952363 L740.493915,377.862798 Z" id="Fill-25" fill="#E2F3F5" mask="url(#mask-4)"></path>
                <path d="M744.743423,387.085834 C738.894756,387.085834 726.928104,380.586258 709.177819,367.767355 C696.001001,358.252316 684.370114,348.612161 684.254186,348.516735 L687.898823,350.312159 C692.326675,353.904421 731.19691,386.175399 744.743423,386.175399 L744.743423,387.085834 Z" id="Fill-26" fill="#E2F3F5" mask="url(#mask-4)"></path>
                <path d="M705.062617,383.958121 C705.758886,384.338411 710.003658,385.043151 720.95312,386.929053 C727.05414,387.980153 741.935935,390.442146 748.326774,390.598362 L748.30486,391.50809 C741.766993,391.349047 726.593966,388.829092 720.373484,387.752544 C715.323584,386.879572 710.201583,385.928846 706.32085,385.145645 C700.11592,383.890969 699.896082,383.659119 699.750467,383.505731 L705.062617,383.958121 Z" id="Fill-27" fill="#E2F3F5" mask="url(#mask-4)"></path>
                <path d="M740.473203,433.307114 C740.473203,433.307114 717.287065,408.876626 722.717969,371.339542 C728.148874,333.803166 770.390186,333.844163 770.088351,370.309647 C769.786516,406.775131 762.141686,416.916449 740.473203,433.307114" id="Fill-28" fill="#68B4B7" mask="url(#mask-4)"></path>
                <polygon id="Fill-29" fill="#E2F3F5" mask="url(#mask-4)" points="742.294249 430.347846 741.492655 430.130133 753.063458 353.388484 754.706231 348.229114 743.143911 425.309349 765.385667 361.958452 765.556023 364.290383"></polygon>
                <polygon id="Fill-30" fill="#E2F3F5" mask="url(#mask-4)" points="740.237108 430.924926 727.815937 371.54234 727.710613 366.970371 740.029994 425.422729 736.734552 351.408852 738.078318 358.974373 741.076873 430.688128"></polygon>
                <polygon id="Fill-31" fill="#F1A34F" mask="url(#mask-4)" points="762.545734 454.813183 747.867518 501.586097 715.067908 501.586097 700.390399 454.813183"></polygon>
                <path d="M762.545734,454.813183 C762.545734,454.813183 730.233866,459.908935 730.233866,501.586097 L715.067908,501.586097 L700.390399,454.813183 L762.545734,454.813183 Z" id="Fill-32" fill="#FFB973" mask="url(#mask-4)"></path>
                <path d="M114.026801,427.980148 C114.026801,427.980148 101.805676,413.725613 113.272568,404.670739 C113.272568,404.670739 121.648305,399.599727 128.477404,400.012533 C128.477404,400.012533 118.801021,416.2385 121.931054,417.850847 C125.060381,419.466022 131.409513,398.993948 131.409513,398.993948 C131.409513,398.993948 150.470342,397.143389 156.60105,400.092408 C156.60105,400.092408 140.309043,413.426612 143.740205,414.218295 C147.171366,415.013512 164.770381,401.926002 164.770381,401.926002 C164.770381,401.926002 182.510063,404.943587 181.563561,415.764904 C180.617058,426.586221 174.506141,429.928254 171.817904,429.641976 C169.132493,429.354284 153.418002,423.355871 153.072341,425.556326 C152.732335,427.756781 162.193122,434.951907 168.817228,435.287665 C168.817228,435.287665 156.308405,449.081327 147.9977,445.098879 C139.686288,441.119965 138.977295,434.808414 133.793796,432.441847 C128.613831,430.074574 124.191634,430.083763 126.329925,432.496276 C128.470336,434.908788 137.844178,437.255563 140.808096,442.496928 C143.772014,447.738294 146.43127,451.272593 137.83004,449.978332 C129.232345,448.684779 115.251812,442.390899 114.641074,435.186584 L114.026801,427.980148 Z" id="Fill-33" fill="#82B378" mask="url(#mask-4)"></path>
                <path d="M172.846333,416.057402 C172.846333,416.057402 124.667289,414.201189 114.026731,427.980007 C114.026731,427.980007 111.672844,435.02952 104.430224,441.4471 L103.302762,444.522647 C103.302762,444.522647 111.651638,435.717294 114.641003,435.186443 C114.641003,435.186443 109.96716,418.114364 172.846333,416.057402" id="Fill-34" fill="#82B378" mask="url(#mask-4)"></path>
                <path d="M104.430507,441.447029 C104.430507,441.447029 94.0910766,449.094546 93.3707731,462.758853 L95.2475207,462.925672 C95.2475207,462.925672 98.5507378,448.796251 104.5224,443.271434 C110.491235,437.745911 104.430507,441.447029 104.430507,441.447029" id="Fill-35" fill="#82B378" mask="url(#mask-4)"></path>
                <path d="M71.3034022,410.053264 C71.3034022,410.053264 90.7402869,399.16621 81.6689867,384.394253 C81.6689867,384.394253 74.4115225,375.323121 66.6359204,372.990484 C66.6359204,372.990484 70.7845575,395.020477 66.6359204,395.540019 C62.4872832,396.056026 63.784395,370.658553 63.784395,370.658553 C63.784395,370.658553 43.3084072,360.809876 35.2762102,361.587422 C35.2762102,361.587422 47.9737685,383.097166 43.8279588,382.581158 C39.682856,382.061616 25.4273499,360.290334 25.4273499,360.290334 C25.4273499,360.290334 4.43251732,356.403312 1.06285412,368.842631 C-2.30610221,381.284777 3.13611239,387.504436 6.24564636,388.281275 C9.35730094,389.058821 29.3130303,388.800817 28.7948924,391.391459 C28.2774615,393.9821 14.7995155,398.13066 7.28262893,395.798023 C7.28262893,395.798023 15.5770757,416.272924 26.4629187,415.237374 C37.3487616,414.19829 40.7184248,407.459796 47.4570444,406.940961 C54.1963708,406.424246 59.1190338,408.240169 55.7514912,410.053264 C52.3804142,411.865653 40.9764334,410.647027 35.5342188,415.274838 C30.0920042,419.901942 25.6853585,422.753415 35.7922275,424.824514 C45.8998033,426.899148 64.0452311,425.60206 67.6729029,417.828016 L71.3034022,410.053264 Z" id="Fill-36" fill="#A8D29F" mask="url(#mask-4)"></path>
                <path d="M10.6525042,372.729794 C10.6525042,372.729794 65.081012,390.35605 71.3036143,410.053406 C71.3036143,410.053406 71.0427782,418.863707 76.4849928,428.972509 L76.4849928,432.860238 C76.4849928,432.860238 70.7840627,419.643373 67.673115,417.828157 C67.673115,417.828157 79.8553629,400.720736 10.6525042,372.729794" id="Fill-37" fill="#82B378" mask="url(#mask-4)"></path>
                <path d="M76.4848514,428.972791 C76.4848514,428.972791 84.8789673,441.719594 80.0934377,457.233754 L77.933234,456.654129 C77.933234,456.654129 80.030526,439.564379 75.6380177,430.96967 C71.24763,422.374962 76.4848514,428.972791 76.4848514,428.972791" id="Fill-38" fill="#82B378" mask="url(#mask-4)"></path>
                <path d="M102.227396,395.040764 C102.227396,395.040764 76.6025458,380.690803 88.560008,361.216815 C88.560008,361.216815 98.1247055,349.259574 108.37507,346.184734 C108.37507,346.184734 102.910235,375.225363 108.37507,375.908896 C113.843439,376.591016 112.134927,343.10848 112.134927,343.10848 C112.134927,343.10848 139.124042,330.127707 149.715825,331.15124 C149.715825,331.15124 132.976368,359.509748 138.441202,358.824801 C143.907451,358.141975 162.697547,329.44488 162.697547,329.44488 C162.697547,329.44488 190.370914,324.320853 194.814318,340.718587 C199.2556,357.117735 192.08084,365.316602 187.980977,366.340842 C183.881821,367.367909 157.573425,367.026496 158.256971,370.442749 C158.940517,373.856882 176.706354,379.32515 186.613885,376.249603 C186.613885,376.249603 175.680681,403.240338 161.331868,401.873978 C146.981641,400.505497 142.541065,391.623803 133.6585,390.940977 C124.775228,390.255323 118.284014,392.648043 122.726711,395.040764 C127.166579,397.433484 142.199646,395.823258 149.374406,401.922751 C156.548459,408.022244 162.356127,411.780618 149.032986,414.514045 C135.707018,417.245351 111.792093,415.538285 107.010098,405.290938 L102.227396,395.040764 Z" id="Fill-39" fill="#A8D29F" mask="url(#mask-4)"></path>
                <path d="M182.171683,345.842897 C182.171683,345.842897 110.426203,369.074551 102.227184,395.041046 C102.227184,395.041046 102.568603,406.656167 95.3931365,419.979768 L95.3931365,425.103087 C95.3931365,425.103087 102.910023,407.680407 107.009886,405.291221 C107.009886,405.291221 90.9525608,382.738858 182.171683,345.842897" id="Fill-40" fill="#82B378" mask="url(#mask-4)"></path>
                <path d="M95.3933485,419.979626 C95.3933485,419.979626 84.3279599,436.781684 90.6368007,457.233966 L93.482671,456.46773 C93.482671,456.46773 90.7202117,433.942228 96.5095009,422.613386 C102.29879,411.283837 95.3933485,419.979626 95.3933485,419.979626" id="Fill-41" fill="#82B378" mask="url(#mask-4)"></path>
                <path d="M101.363809,501.586097 C129.083124,501.586097 151.554614,479.114316 151.554614,451.392688 L51.1694702,451.392688 C51.1694702,479.114316 73.6416672,501.586097 101.363809,501.586097" id="Fill-42" fill="#F1A34F" mask="url(#mask-4)"></path>
                <path d="M113.714081,501.201565 C111.672632,501.456741 109.590184,501.586097 107.477341,501.586097 C79.7580265,501.586097 57.2858295,479.114316 57.2858295,451.392688 L69.7571884,451.392688 C69.7571884,477.003633 88.9353576,498.128845 113.714081,501.201565" id="Fill-43" fill="#FFB973" mask="url(#mask-4)"></path>
                <polygon id="Fill-44" fill="#D86713" mask="url(#mask-4)" points="49.5199823 452.933855 152.696567 452.933855 152.696567 451.3929 49.5199823 451.3929"></polygon>
                <polygon id="Fill-45" fill="#66658C" mask="url(#mask-4)" points="226.368276 453.859841 620.999875 453.859841 620.999875 444.170207 226.368276 444.170207"></polygon>
                <path d="M423.684429,239.033198 C146.424837,239.033198 180.896909,319.266028 180.896909,319.266028 L226.513539,420.429684 L423.684429,420.429684 L620.85532,420.429684 L666.471243,319.266028 C666.471243,319.266028 700.944022,239.033198 423.684429,239.033198" id="Fill-46" fill="#FCC68B" mask="url(#mask-4)"></path>
                <polygon id="Fill-47" fill="#66658C" mask="url(#mask-4)" points="226.368135 453.859912 213.867794 502.988789 219.245684 502.988789 237.269529 453.859912"></polygon>
                <polygon id="Fill-48" fill="#66658C" mask="url(#mask-4)" points="621.000017 453.859912 633.501771 502.988789 628.123175 502.988789 610.09933 453.859912"></polygon>
                <polygon id="Fill-49" fill="#E38A42" mask="url(#mask-4)" points="219.390734 411.998896 627.976711 411.998896 627.976711 388.743208 219.390734 388.743208"></polygon>
                <path d="M630.258356,449.015448 L702.38272,334.162038 C708.762955,324.002342 705.698661,310.594625 695.539483,304.214509 C685.598023,297.971523 672.479168,300.970729 666.236773,310.911299 L606.498943,406.040492 L241.263361,406.040492 L181.525531,310.911299 C175.283136,300.970729 162.164282,297.971523 152.222821,304.214509 C142.063643,310.594625 138.999349,324.002342 145.379584,334.162038 L217.501828,449.011207 L217.501828,449.015448 L630.258356,449.015448 Z" id="Fill-50" fill="#F7A669" mask="url(#mask-4)"></path>
                <path d="M295.215437,391.355267 C294.176333,391.724248 293.081387,392.00982 291.958166,392.19431 L244.773692,399.776088 C234.857679,401.354506 225.526956,394.612477 223.932958,384.697355 L214.701904,327.129985 C213.108613,317.214862 219.851474,307.884313 229.766073,306.291051 L236.465815,305.209555 L276.94984,298.722703 C286.865147,297.129441 296.196576,303.887021 297.77573,313.801436 L307.021628,371.369513 C308.430426,380.160022 303.294994,388.467038 295.215437,391.355267" id="Fill-51" fill="#F4EAE1" mask="url(#mask-4)"></path>
                <path d="M295.215437,391.355267 C294.176333,391.724248 293.081387,392.00982 291.958166,392.19431 L244.773692,399.776088 C234.857679,401.354506 225.526956,394.612477 223.932958,384.697355 L214.701904,327.129985 C213.108613,317.214862 219.851474,307.884313 229.766073,306.291051 L236.465815,305.209555 C236.465815,305.223692 236.479952,305.223692 236.479952,305.223692 C236.479952,305.223692 238.769514,383.432076 295.215437,391.355267" id="Fill-52" fill="#E6DCD4" mask="url(#mask-4)"></path>
                <path d="M381.550209,394.431239 C381.550209,394.431239 378.400383,389.656401 377.88578,386.852994 C377.371883,384.049588 375.792022,382.452085 375.792022,382.452085 C375.792022,382.452085 363.855059,380.715331 359.268161,376.457207 C354.679849,372.199084 344.96176,360.600221 340.373448,364.075851 C335.785135,367.55148 343.698578,382.177824 348.381611,386.597111 C353.063937,391.016399 359.403173,398.762169 365.162774,398.187492 C370.923081,397.614228 378.765836,394.880095 381.550209,394.431239" id="Fill-53" fill="#AB2A41" mask="url(#mask-4)"></path>
                <path d="M381.550209,393.698861 L375.792022,382.452015 C375.792022,382.452015 403.355118,377.400794 411.417003,372.546788 C413.437246,371.328869 415.447593,370.108122 417.319392,368.953113 C421.576888,366.325715 425.107011,364.052454 426.352521,362.994285 C430.331509,359.60984 446.286337,348.307151 450.597555,344.155764 C454.903825,340.00579 459.994724,342.534934 466.713551,342.602793 C473.432378,342.675599 497.769306,349.415508 505.048683,350.381078 C512.331595,351.341701 538.620906,356.230343 538.620906,356.230343 C533.992302,368.878186 381.550209,393.698861 381.550209,393.698861" id="Fill-54" fill="#25354D" mask="url(#mask-4)"></path>
                <path d="M540.156233,355.820364 C540.156233,355.820364 525.323919,357.957908 521.509633,358.248428 C517.606281,358.545309 495.518622,360.322354 484.866048,361.345181 C474.21418,362.368714 453.291448,361.75728 449.139983,363.581685 C444.987812,365.407504 420.997959,373.536392 413.144601,376.073312 C405.291949,378.610232 354.269155,387.94997 354.269155,387.94997 C354.269155,387.94997 353.39546,394.862352 357.912378,400.168749 C357.912378,400.168749 380.40154,398.16056 392.269937,399.90509 C404.138333,401.650327 424.868088,398.991827 437.450426,393.284641 C450.032057,387.578162 469.976476,392.784891 481.122449,396.701602 C492.269128,400.618312 534.882255,403.763131 540.20006,402.569245 C545.519278,401.374652 556.124493,396.256987 563.807494,387.901197 C571.490496,379.5447 540.156233,355.820364 540.156233,355.820364" id="Fill-55" fill="#2F4563" mask="url(#mask-4)"></path>
                <path d="M357.912096,400.168961 C357.912096,400.168961 356.010607,394.774207 356.189446,391.929803 C356.368285,389.084692 355.498125,387.724694 355.498125,387.724694 C355.498125,387.724694 344.059507,382.580168 340.638242,377.338803 C337.217684,372.098144 330.593578,358.492507 325.299807,360.755165 C320.006742,363.017823 324.147604,379.125038 327.622591,384.545239 C331.097578,389.96544 333.245058,404.391742 338.973556,405.22725 C344.701348,406.064172 355.101569,399.930749 357.912096,400.168961" id="Fill-56" fill="#FD6062" mask="url(#mask-4)"></path>
                <path d="M573.502822,346.325399 C573.502822,346.325399 592.249799,388.86705 563.148548,399.181549 C539.938375,407.409397 497.147823,399.835394 497.147823,399.835394 L523.474598,358.354033 L573.502822,346.325399 Z" id="Fill-57" fill="#2F4563" mask="url(#mask-4)"></path>
                <path d="M525.248354,185.787499 C532.386357,187.375106 528.130982,205.297536 532.915805,230.354303 C537.699214,255.411776 552.801554,259.328487 552.801554,259.328487 C552.801554,259.328487 546.094744,248.217357 546.828478,236.600823 C547.402458,227.522622 558.398574,202.757789 547.528989,186.569992 C539.130632,174.062815 524.332954,185.417811 524.332954,185.417811 L525.248354,185.787499 Z" id="Fill-58" fill="#323657" mask="url(#mask-4)"></path>
                <path d="M535.988864,237.955661 L522.108708,252.240591 C521.98147,249.618141 521.017296,246.428083 520.029794,243.766756 C519.544173,242.465427 519.049362,241.287092 518.652806,240.375949 C518.125479,239.177822 517.755077,238.432085 517.755077,238.432085 L530.136663,225.339627 L535.988864,237.955661 Z" id="Fill-59" fill="#FD6062" mask="url(#mask-4)"></path>
                <path d="M519.465003,250.837899 C519.465003,250.837899 518.927779,257.707869 515.188422,264.044867 C511.448357,270.381865 505.266047,280.901353 506.141862,287.740929 C507.018385,294.579797 509.927167,297.063703 512.556027,299.526402 C515.18418,301.988395 522.399939,319.761678 523.276462,326.601254 C524.152277,333.439416 524.704345,347.651539 523.04178,358.100341 C523.04178,358.100341 571.714221,363.748151 576.61073,355.244627 C576.61073,355.244627 570.570501,327.900462 567.72039,321.046749 C564.870278,314.195157 558.906391,273.198702 556.348218,266.22765 C553.790045,259.257306 547.756885,252.517397 544.068422,247.683183 C540.77298,243.364977 534.770215,235.330101 534.770215,235.330101 L519.465003,250.837899 Z" id="Fill-60" fill="#8181D1" mask="url(#mask-4)"></path>
                <path d="M513.382008,187.243276 C506.957947,187.67234 493.161908,192.522105 492.933588,209.70304 C492.933588,209.70304 493.971985,214.207858 495.493175,217.666523 C497.015779,221.124481 495.023811,232.068791 495.922954,232.492907 C496.821389,232.91773 500.362823,233.183509 500.362823,233.183509 C500.362823,233.183509 505.424033,244.304535 509.468053,243.736219 C513.511366,243.168611 528.495658,238.226247 534.065816,223.021693 C539.635975,207.815724 539.321417,185.512177 513.382008,187.243276" id="Fill-61" fill="#FD6062" mask="url(#mask-4)"></path>
                <path d="M492.9338,209.703323 C492.9338,209.703323 504.120064,215.575207 514.576835,215.814126 C525.033606,216.052338 533.603734,232.814811 533.603734,232.814811 C533.603734,232.814811 546.265241,204.41177 531.765864,189.999606 C517.309606,175.631266 488.416175,190.244179 492.9338,209.703323" id="Fill-62" fill="#323657" mask="url(#mask-4)"></path>
                <path d="M517.021979,215.712338 C516.847382,213.712632 518.719181,210.467438 522.298786,212.812092 C525.876976,215.15816 522.581535,225.13902 519.799283,224.519811 C517.016324,223.899895 517.201525,217.777782 517.021979,215.712338" id="Fill-63" fill="#FD6062" mask="url(#mask-4)"></path>
                <path d="M528.577726,232.434026 C528.383336,232.757768 523.291023,241.09942 520.029512,243.766402 C519.544597,242.465073 519.049786,241.286738 518.652523,240.375596 C518.652523,240.375596 525.925539,236.041131 528.577726,232.434026" id="Fill-64" fill="#AB2A41" mask="url(#mask-4)"></path>
                <polygon id="Fill-65" fill="#9191A7" mask="url(#mask-4)" points="424.915236 372.020178 492.934083 359.179362 491.816517 353.259411 423.79767 366.100227"></polygon>
                <polygon id="Fill-66" fill="#9191A7" mask="url(#mask-4)" points="385.745217 314.937784 424.890425 372.025196 429.859035 368.617425 390.713827 311.531427"></polygon>
                <path d="M437.91781,363.434305 C437.579925,361.923039 437.917103,359.400256 442.677186,356.851319 C447.437975,354.300969 457.720148,348.499771 461.335096,348.36264 C464.950044,348.224095 472.071082,348.793824 473.532895,348.786756 C474.994002,348.779687 471.24192,357.388533 471.24192,357.388533 L437.91781,363.434305 Z" id="Fill-67" fill="#FD6062" mask="url(#mask-4)"></path>
                <path d="M471.861565,349.446256 C471.861565,349.446256 491.704902,341.635455 494.927535,340.080363 C498.149462,338.524565 513.176873,333.471224 514.510743,332.804655 C515.843905,332.138087 522.124471,294.621502 522.68078,285.177148 C523.236382,275.733501 523.791984,255.73361 534.458696,256.622839 C545.125409,257.510655 547.680754,264.511395 546.346885,278.288799 C545.013723,292.065497 537.125021,341.39795 533.791408,343.065432 C530.458503,344.731501 492.192644,353.29016 472.01637,357.315019 C452.708137,361.166699 471.861565,349.446256 471.861565,349.446256" id="Fill-68" fill="#FD6062" mask="url(#mask-4)"></path>
                <path d="M521.589792,288.114433 C521.589792,288.114433 536.960744,290.983577 545.82281,291.872807 C545.82281,291.872807 556.850027,260.459957 541.838874,255.441959 C524.043348,249.493027 520.067895,273.837986 521.589792,288.114433" id="Fill-69" fill="#8181D1" mask="url(#mask-4)"></path>
                <path d="M580.767567,388.324182 C581.694984,393.164051 584.54651,397.616561 589.035153,400.451776 C597.63921,405.892476 609.027639,403.320213 614.462785,394.713488 L657.425814,326.679645 C662.227602,319.069592 660.777806,309.307151 654.435035,303.384373 L654.427966,303.382959 C653.599511,302.598344 652.677749,301.891485 651.678231,301.257431 C650.140075,300.288327 648.520629,299.572984 646.85453,299.100802 C639.201217,296.929329 630.717328,299.927828 626.252719,306.995012 L583.287569,375.030269 C580.688397,379.147728 579.922147,383.897119 580.767567,388.324182" id="Fill-70" fill="#F4EAE1" mask="url(#mask-4)"></path>
                <path d="M580.767567,388.324182 C581.694984,393.164051 584.54651,397.616561 589.035153,400.451776 C597.63921,405.892476 609.027639,403.320213 614.462785,394.713488 L657.425814,326.679645 C662.227602,319.069592 660.777806,309.307151 654.435035,303.384373 L654.427966,303.382959 C654.427966,303.382959 636.402707,362.318809 580.767567,388.324182" id="Fill-71" fill="#E6DCD4" mask="url(#mask-4)"></path>
                <path d="M286.656337,400.764632 C287.118631,398.946588 284.006977,396.930624 282.093472,396.289502 C274.46702,393.958279 279.743119,388.136581 277.621794,380.734345 C275.307492,371.620095 267.690229,365.980767 260.848406,363.593702 C269.161232,366.106588 276.905732,373.064209 278.380975,381.10474 C279.100572,384.883612 278.830547,388.147184 278.640398,389.088721 C278.253738,391.00007 278.518109,393.568799 280.161588,394.705429 C281.269258,395.498526 285.337312,395.869628 287.083288,399.090788 C288.075031,401.176731 286.876174,402.484422 284.660127,403.145336 C279.115416,404.761217 256.024706,403.5023 252.197696,400.091701 C255.665614,402.91914 285.538064,405.254605 286.656337,400.764632" id="Fill-72" fill="#454342" mask="url(#mask-4)"></path>
                <path d="M265.46464,349.433815 C265.46464,349.433815 277.912672,344.765713 284.448419,344.299186 C290.984166,343.831951 292.89555,340.072164 292.89555,340.072164 L314.565447,342.618273 C314.565447,342.618273 313.406882,346.166709 314.565447,349.175105 C315.725425,352.1835 320.134898,355.71073 313.780111,366.913752 C307.42603,378.116066 305.058713,380.814857 305.101125,391.913263 C305.132934,400.309343 311.523772,400.315705 310.901017,402.183229 C310.278262,404.050752 301.409835,404.050752 299.853301,402.183229 C298.296766,400.315705 278.068184,400.937742 273.711726,400.937742 C269.354562,400.937742 254.261411,402.805265 250.993538,399.226434 C247.725664,395.64831 239.448889,361.756502 265.46464,349.433815" id="Fill-73" fill="#87827F" mask="url(#mask-4)"></path>
                <path d="M297.67083,317.666546 C299.368739,317.057233 301.187523,316.86638 302.982274,317.043095 C308.24777,317.560517 322.546395,320.10804 319.614993,332.473845 C316.035389,347.566716 304.209405,349.27873 297.830584,345.233372 C291.450349,341.186599 289.583497,332.940373 290.361764,327.805743 C291.005726,323.553274 292.823803,319.407541 297.67083,317.666546" id="Fill-74" fill="#87827F" mask="url(#mask-4)"></path>
                <path d="M293.006459,307.681444 C297.052599,309.859986 300.599688,317.028251 300.599688,317.028251 L292.15397,322.268203 C292.15397,322.268203 288.960318,305.502195 293.006459,307.681444" id="Fill-75" fill="#87827F" mask="url(#mask-4)"></path>
                <path d="M325.475677,314.877065 C330.5588,315.15062 319.909052,327.868441 319.909052,327.868441 L313.779757,319.988368 C313.779757,319.988368 320.39326,314.602803 325.475677,314.877065" id="Fill-76" fill="#87827F" mask="url(#mask-4)"></path>
                <path d="M278.276005,389.008988 C278.276005,389.008988 277.030495,394.634885 281.49157,395.711432 C285.951938,396.788687 290.309102,401.664606 283.670152,403.013294 C277.030495,404.361276 255.580436,403.083273 252.197342,400.091843 L260.84876,363.593843 C260.84876,363.593843 280.868815,369.610634 278.276005,389.008988" id="Fill-77" fill="#87827F" mask="url(#mask-4)"></path>
                <path d="M295.768353,397.838515 C303.301497,404.801791 293.214421,404.050399 290.956669,403.547822 C288.701037,403.046658 289.160505,400.88296 287.775741,396.95494 C286.390977,393.027627 283.358492,358.614864 283.358492,358.614864 L298.519502,359.236901 C299.052484,363.075149 288.235208,390.875239 295.768353,397.838515" id="Fill-78" fill="#87827F" mask="url(#mask-4)"></path>
                <path d="M288.685839,398.630975 C289.483899,401.567271 289.402609,402.759744 291.034071,403.17255 C292.585657,403.518204 295.812532,403.676541 297.310396,402.968267 C299.175834,402.099537 297.446116,399.999456 295.977234,398.557462 C287.397917,389.978304 299.021028,363.73472 298.519149,359.236971 C299.107974,363.160043 289.329094,389.135021 295.447786,396.940874 C296.26281,397.90291 299.279037,400.265942 298.859154,402.284734 C298.290829,404.847101 292.186981,404.364315 290.445953,403.798828 C288.728959,403.184566 288.804594,401.829516 287.28199,396.588151 C285.705663,389.358388 283.89112,366.038376 283.358845,358.614935 C287.700459,398.246444 287.386607,393.815846 288.685839,398.630975" id="Fill-79" fill="#454342" mask="url(#mask-4)"></path>
                <path d="M298.258313,325.121655 C300.047408,325.549305 299.657921,327.377244 299.657921,327.377244 C299.308019,328.466515 298.141678,328.817118 297.324533,328.544977 C296.508095,328.272129 296.196364,327.650092 296.080437,326.949594 C295.963096,326.249096 296.46851,324.694005 298.258313,325.121655" id="Fill-80" fill="#383635" mask="url(#mask-4)"></path>
                <path d="M312.106518,328.706353 C313.896321,329.133296 313.506834,330.961943 313.506834,330.961943 C313.156932,332.051214 311.989884,332.402523 311.173446,332.129675 C310.355594,331.857534 310.045277,331.234791 309.927936,330.534292 C309.812009,329.834501 310.317423,328.278703 312.106518,328.706353" id="Fill-81" fill="#383635" mask="url(#mask-4)"></path>
                <path d="M301.513109,332.861911 C302.473749,332.742452 304.348376,333.457087 305.152091,333.789311 C305.551474,333.954716 305.740209,334.434674 305.526026,334.810724 C304.927305,335.861824 302.45537,336.710763 302.292083,336.648559 C302.083555,336.570805 300.267599,333.018834 301.513109,332.861911" id="Fill-82" fill="#383635" mask="url(#mask-4)"></path>
                <polygon id="Fill-83" fill="#F1A34F" mask="url(#mask-4)" points="73.7600684 501.870466 127.48241 501.870466 127.48241 495.508728 73.7600684 495.508728"></polygon>
                <polygon id="Fill-84" fill="#FFFFFF" mask="url(#mask-4)" points="214.427779 224.78142 303.493767 224.78142 303.493767 121.579888 214.427779 121.579888"></polygon>
                <polygon id="Fill-85" fill="#E1F3F5" mask="url(#mask-4)" points="219.305273 219.130005 298.616414 127.231161 298.616414 219.130005"></polygon>
            </g>
      
        </g>
    </g>
</svg>