<svg  viewBox="0 0 1333 1000" fill="none" xmlns="http://www.w3.org/2000/svg">
<g id="Work_Home 1">
<path id="Vector" d="M666 831C976.384 831 1228 823.389 1228 814C1228 804.611 976.384 797 666 797C355.616 797 104 804.611 104 814C104 823.389 355.616 831 666 831Z" fill="#E2F3F5"/>
<g id="Group">
<path id="Vector_2" d="M328.49 764.49C328.49 764.49 214.21 763.13 163.87 681.5C113.53 599.87 215.57 533.2 207.41 465.18C199.25 397.15 167.95 308.72 267.27 274.71C366.59 240.7 401.96 280.15 441.42 203.96C480.88 127.77 513.53 97.84 601.96 107.36C690.39 116.88 708.08 164.5 777.47 142.73C846.86 120.96 933.93 99.19 993.79 142.73C1053.65 186.27 1042.77 252.93 1087.67 270.62C1132.57 288.31 1223.72 327.76 1189.71 423C1155.7 518.23 1151.62 544.09 1182.91 579.46C1214.2 614.83 1247.56 664.24 1196.51 720.95C1172.02 748.16 1108.08 757.68 1108.08 757.68L328.49 764.49Z" fill="#E2F3F5"/>
</g>
<g id="Group_2">
<path id="Vector_3" d="M833.64 176.19H701.16V308.67H833.64V176.19Z" fill="white"/>
<path id="Vector_4" d="M986 176.19H853.52V308.67H986V176.19Z" fill="white"/>
<path id="Vector_5" d="M833.64 328.54H701.16V461.02H833.64V328.54Z" fill="white"/>
<path id="Vector_6" d="M986 328.54H853.52V461.02H986V328.54Z" fill="white"/>
</g>
<g id="Group_3">
<g id="Group_4">
<path id="Vector_7" d="M1135.18 641.226L1133.89 641.312L1141.28 750.62L1142.57 750.534L1135.18 641.226Z" fill="#81A358"/>
</g>
<g id="Group_5">
<path id="Vector_8" d="M1106.1 451.82L1104.81 451.898L1122.76 748.394L1124.04 748.316L1106.1 451.82Z" fill="#81A358"/>
</g>
<g id="Group_6">
<path id="Vector_9" d="M1132.09 408.86H1130.8V754.74H1132.09V408.86Z" fill="#81A358"/>
</g>
<g id="Group_7">
<path id="Vector_10" d="M1147.32 545.096L1142.77 752.194L1144.06 752.223L1148.61 545.124L1147.32 545.096Z" fill="#81A358"/>
</g>
<g id="Group_8">
<path id="Vector_11" d="M1130.69 479.61C1130.69 479.61 1094.74 448.95 1105.41 418.35C1116.08 387.75 1168.76 404.31 1152.02 459.52C1152.02 459.51 1146.58 473.75 1130.69 479.61Z" fill="#4E9EAD"/>
</g>
<g id="Group_9">
<g id="Group_10">
<path id="Vector_12" d="M1141.67 464.18L1140.39 464.07L1143.17 431.24L1144.88 426.37L1141.67 464.18Z" fill="#E2F3F5"/>
</g>
</g>
<g id="Group_11">
<g id="Group_12">
<path id="Vector_13" d="M1123.98 464.97L1122.69 464.94L1123.74 413.06L1124.86 421.32L1123.98 464.97Z" fill="#E2F3F5"/>
</g>
</g>
<g id="Group_13">
<g id="Group_14">
<path id="Vector_14" d="M1117.33 456.51L1111.06 420.91L1113.33 426.37L1118.6 456.29L1117.33 456.51Z" fill="#E2F3F5"/>
</g>
</g>
<g id="Group_15">
<g id="Group_16">
<path id="Vector_15" d="M1107.97 529.93C1107.97 529.93 1076.81 489.6 1093.03 461.1C1109.25 432.6 1213.64 456.16 1166.45 559.02C1119.26 661.88 1082.79 592.69 1082.79 592.69L1107.97 529.93Z" fill="#458489"/>
</g>
</g>
<g id="Group_17">
<g id="Group_18">
<path id="Vector_16" d="M1135.26 603.39L1134.02 603.06L1162.33 496.54L1165.7 488.85L1135.26 603.39Z" fill="#E2F3F5"/>
</g>
</g>
<g id="Group_19">
<g id="Group_20">
<path id="Vector_17" d="M1126.31 593.25L1125.02 593.19L1130.47 473.14L1132.07 466.36L1126.31 593.25Z" fill="#E2F3F5"/>
</g>
</g>
<g id="Group_21">
<g id="Group_22">
<path id="Vector_18" d="M1113.73 553.87L1108.38 468.03L1110.12 475.23L1115.01 553.79L1113.73 553.87Z" fill="#E2F3F5"/>
</g>
</g>
<g id="Group_23">
<g id="Group_24">
<path id="Vector_19" d="M1131.45 566.19C1131.45 566.19 1126.75 496.99 1087.06 522.48C1047.36 547.97 1037.55 647.89 1131.45 678.25V566.19Z" fill="#4E9EAD"/>
</g>
</g>
<g id="Group_25">
<g id="Group_26">
<path id="Vector_20" d="M1137.67 632.71L1097.47 535.57L1095.46 527.36L1138.86 632.22L1137.67 632.71Z" fill="#E2F3F5"/>
</g>
</g>
<g id="Group_27">
<g id="Group_28">
<path id="Vector_21" d="M1144.21 639.56C1140.61 639.43 1134.67 634.94 1126.06 625.84C1119.35 618.75 1111.09 608.9 1101.5 596.57C1085.19 575.59 1075.19 561.07 1075.04 560.86L1071.41 553.47C1071.56 553.68 1086.23 574.84 1102.51 595.79C1129.61 630.64 1140.16 638.13 1144.24 638.28L1144.21 639.56Z" fill="#E2F3F5"/>
</g>
</g>
<g id="Group_29">
<g id="Group_30">
<path id="Vector_22" d="M1150.23 652.61C1141.96 652.61 1125.03 643.41 1099.92 625.28C1081.28 611.82 1064.83 598.18 1064.66 598.05L1069.82 600.59C1076.08 605.67 1131.07 651.33 1150.24 651.33V652.61H1150.23Z" fill="#E2F3F5"/>
</g>
</g>
<g id="Group_31">
<g id="Group_32">
<path id="Vector_23" d="M1094.09 648.18C1095.08 648.72 1101.08 649.72 1116.57 652.38C1125.2 653.87 1146.25 657.35 1155.29 657.57L1155.26 658.86C1146.01 658.64 1124.55 655.07 1115.75 653.55C1108.61 652.31 1101.36 650.97 1095.87 649.86C1087.09 648.09 1086.78 647.76 1086.58 647.54L1094.09 648.18Z" fill="#E2F3F5"/>
</g>
</g>
<g id="Group_33">
<g id="Group_34">
<path id="Vector_24" d="M1144.18 718C1144.18 718 1111.38 683.44 1119.06 630.33C1126.74 577.23 1186.5 577.29 1186.07 628.87C1185.65 680.46 1174.84 694.81 1144.18 718Z" fill="#68B4B7"/>
</g>
</g>
<g id="Group_35">
<g id="Group_36">
<path id="Vector_25" d="M1146.76 713.81L1145.63 713.5L1162 604.94L1164.32 597.64L1147.96 706.68L1179.43 617.06L1179.67 620.36L1146.76 713.81Z" fill="#E2F3F5"/>
</g>
</g>
<g id="Group_37">
<g id="Group_38">
<path id="Vector_26" d="M1143.85 714.63L1126.28 630.62L1126.13 624.15L1143.56 706.84L1138.9 602.14L1140.8 612.84L1145.04 714.29L1143.85 714.63Z" fill="#E2F3F5"/>
</g>
</g>
<path id="Vector_27" d="M1175.41 748.42L1154.65 814.59H1108.24L1087.48 748.42H1175.41Z" fill="#F1A34F"/>
<mask id="mask0_1_2" style="mask-type:alpha" maskUnits="userSpaceOnUse" x="1087" y="748" width="89" height="67">
<g id="SVGID_1_">
<g id="Group_39">
<path id="Vector_28" d="M1175.41 748.42C1175.41 748.42 1129.7 755.63 1129.7 814.59H1108.24L1087.48 748.42H1175.41Z" fill="url(#paint0_linear_1_2)"/>
</g>
</g>
</mask>
<g mask="url(#mask0_1_2)">
<path id="Vector_29" d="M1175.41 748.42C1175.41 748.42 1129.7 755.63 1129.7 814.59H1108.24L1087.48 748.42H1175.41Z" fill="#FFB973"/>
</g>
</g>
<g id="Group_40">
<g id="Group_41">
<path id="Vector_30" d="M257.96 710.46C257.96 710.46 240.67 690.29 256.89 677.48C256.89 677.48 268.74 670.31 278.4 670.89C278.4 670.89 264.71 693.85 269.14 696.13C273.57 698.42 282.55 669.45 282.55 669.45C282.55 669.45 309.52 666.83 318.19 671C318.19 671 295.14 689.86 300 690.98C304.85 692.11 329.75 673.59 329.75 673.59C329.75 673.59 354.85 677.86 353.51 693.17C352.17 708.48 343.53 713.21 339.72 712.8C335.92 712.39 313.69 703.91 313.2 707.02C312.72 710.13 326.1 720.31 335.47 720.79C335.47 720.79 317.77 740.3 306.02 734.67C294.26 729.04 293.26 720.11 285.93 716.76C278.6 713.41 272.35 713.42 275.37 716.84C278.4 720.25 291.66 723.57 295.85 730.99C300.04 738.4 303.81 743.4 291.64 741.57C279.48 739.74 259.7 730.84 258.83 720.64C257.96 710.46 257.96 710.46 257.96 710.46Z" fill="#82B378"/>
<g id="Group_42">
<path id="Vector_31" d="M341.17 693.6C341.17 693.6 273.01 690.97 257.96 710.47C257.96 710.47 254.63 720.44 244.38 729.52L242.78 733.87C242.78 733.87 254.59 721.41 258.82 720.66C258.83 720.66 252.22 696.51 341.17 693.6Z" fill="#82B378"/>
<path id="Vector_32" d="M244.39 729.51C244.39 729.51 229.76 740.33 228.74 759.66L231.39 759.9C231.39 759.9 236.06 739.91 244.51 732.1C252.96 724.28 244.39 729.51 244.39 729.51Z" fill="#82B378"/>
</g>
</g>
<g id="Group_43">
<path id="Vector_33" d="M197.52 685.1C197.52 685.1 225.02 669.7 212.18 648.8C212.18 648.8 201.91 635.97 190.91 632.67C190.91 632.67 196.78 663.84 190.91 664.57C185.04 665.3 186.88 629.37 186.88 629.37C186.88 629.37 157.91 615.44 146.55 616.54C146.55 616.54 164.51 646.97 158.65 646.24C152.79 645.51 132.62 614.7 132.62 614.7C132.62 614.7 102.92 609.2 98.15 626.8C93.38 644.4 101.08 653.2 105.48 654.3C109.88 655.4 138.11 655.03 137.38 658.7C136.65 662.36 117.58 668.23 106.95 664.93C106.95 664.93 118.68 693.9 134.08 692.43C149.48 690.96 154.25 681.43 163.78 680.69C173.31 679.96 180.28 682.53 175.51 685.09C170.74 687.65 154.61 685.93 146.91 692.48C139.21 699.03 132.98 703.06 147.28 705.99C161.58 708.92 187.25 707.09 192.38 696.09C197.52 685.1 197.52 685.1 197.52 685.1Z" fill="#A8D29F"/>
<g id="Group_44">
<path id="Vector_34" d="M111.72 632.3C111.72 632.3 188.72 657.24 197.52 685.1C197.52 685.1 197.15 697.56 204.85 711.87V717.37C204.85 717.37 196.79 698.67 192.38 696.1C192.39 696.1 209.62 671.9 111.72 632.3Z" fill="#82B378"/>
<path id="Vector_35" d="M204.85 711.87C204.85 711.87 216.73 729.9 209.96 751.85L206.9 751.03C206.9 751.03 209.87 726.85 203.65 714.69C197.44 702.53 204.85 711.87 204.85 711.87Z" fill="#82B378"/>
</g>
</g>
<g id="Group_45">
<path id="Vector_36" d="M241.27 663.86C241.27 663.86 205.02 643.56 221.94 616.01C221.94 616.01 235.47 599.09 249.97 594.74C249.97 594.74 242.24 635.82 249.97 636.79C257.71 637.76 255.29 590.39 255.29 590.39C255.29 590.39 293.47 572.03 308.46 573.47C308.46 573.47 284.78 613.59 292.51 612.62C300.24 611.65 326.82 571.06 326.82 571.06C326.82 571.06 365.97 563.81 372.26 587.01C378.54 610.21 368.39 621.81 362.59 623.26C356.79 624.71 319.57 624.23 320.54 629.06C321.51 633.89 346.64 641.63 360.66 637.27C360.66 637.27 345.19 675.45 324.89 673.52C304.59 671.58 298.31 659.02 285.74 658.05C273.17 657.08 263.99 660.47 270.27 663.85C276.55 667.23 297.82 664.96 307.97 673.59C318.12 682.22 326.33 687.54 307.49 691.4C288.64 695.26 254.81 692.85 248.04 678.35C241.27 663.86 241.27 663.86 241.27 663.86Z" fill="#A8D29F"/>
<g id="Group_46">
<path id="Vector_37" d="M354.37 594.26C354.37 594.26 252.87 627.13 241.27 663.86C241.27 663.86 241.75 680.29 231.6 699.14V706.39C231.6 706.39 242.23 681.74 248.03 678.36C248.04 678.36 225.32 646.46 354.37 594.26Z" fill="#82B378"/>
<path id="Vector_38" d="M231.6 699.14C231.6 699.14 215.95 722.91 224.87 751.84L228.9 750.76C228.9 750.76 224.99 718.89 233.18 702.87C241.37 686.84 231.6 699.14 231.6 699.14Z" fill="#82B378"/>
</g>
</g>
<path id="Vector_39" d="M240.05 814.59C279.26 814.59 311.05 782.8 311.05 743.58H169.04C169.04 782.8 200.83 814.59 240.05 814.59Z" fill="#F1A34F"/>
<path id="Vector_40" d="M257.52 814.05C254.63 814.41 251.69 814.59 248.7 814.59C209.49 814.59 177.7 782.8 177.7 743.58H195.34C195.34 779.82 222.47 809.7 257.52 814.05Z" fill="#FFB973"/>
<path id="Vector_41" d="M312.67 743.59H166.71V745.77H312.67V743.59Z" fill="#D86713"/>
</g>
<path id="Vector_42" d="M975.17 733.37H416.89V747.08H975.17V733.37Z" fill="#66658C"/>
<path id="Vector_43" d="M696.03 443.16C303.8 443.16 352.56 556.67 352.56 556.67L417.09 699.79H696.02H974.95L1039.48 556.67C1039.5 556.66 1088.26 443.16 696.03 443.16Z" fill="#FCC68B"/>
<path id="Vector_44" d="M416.89 747.08L399.21 816.58H406.81L432.31 747.08H416.89Z" fill="#66658C"/>
<path id="Vector_45" d="M975.17 747.08L992.85 816.58H985.25L959.75 747.08H975.17Z" fill="#66658C"/>
<path id="Vector_46" d="M985.04 654.95H407.02V687.85H985.04V654.95Z" fill="#E38A42"/>
<path id="Vector_47" d="M988.27 740.22L1090.3 577.74C1099.33 563.37 1094.99 544.4 1080.62 535.37C1066.56 526.54 1048 530.78 1039.17 544.84L954.66 679.42H437.96L353.45 544.84C344.62 530.78 326.06 526.53 312 535.37C297.63 544.4 293.29 563.36 302.32 577.74L404.35 740.22V740.23H988.27V740.22Z" fill="#F7A669"/>
<g id="Group_47">
<path id="Vector_48" d="M514.29 658.65C512.82 659.17 511.27 659.58 509.68 659.84L442.93 670.57C428.9 672.8 415.7 663.27 413.45 649.24L400.39 567.8C398.14 553.77 407.68 540.57 421.7 538.32L431.18 536.79L488.45 527.61C502.48 525.36 515.68 534.92 517.91 548.94L530.99 630.38C532.98 642.81 525.72 654.56 514.29 658.65Z" fill="#F4EAE1"/>
<path id="Vector_49" d="M514.29 658.65C512.82 659.17 511.27 659.58 509.68 659.84L442.93 670.57C428.9 672.8 415.7 663.27 413.45 649.24L400.39 567.8C398.14 553.77 407.68 540.57 421.7 538.32L431.18 536.79C431.18 536.81 431.2 536.81 431.2 536.81C431.2 536.81 434.43 647.44 514.29 658.65Z" fill="#E6DCD4"/>
</g>
<path id="Vector_50" d="M636.42 663C636.42 663 631.96 656.25 631.24 652.28C630.51 648.31 628.28 646.05 628.28 646.05C628.28 646.05 611.39 643.59 604.9 637.57C598.41 631.55 584.66 615.14 578.17 620.05C571.68 624.96 582.87 645.66 589.5 651.91C596.12 658.16 605.09 669.12 613.24 668.31C621.39 667.5 632.48 663.64 636.42 663Z" fill="#B07F82"/>
<path id="Vector_51" d="M636.42 661.96L628.27 646.05C628.27 646.05 667.26 638.9 678.67 632.04C681.53 630.32 684.37 628.59 687.02 626.96C693.04 623.24 698.04 620.03 699.8 618.53C705.43 613.74 728 597.75 734.1 591.88C740.19 586.01 747.39 589.59 756.9 589.68C766.41 589.78 800.83 599.32 811.13 600.68C821.43 602.04 858.62 608.96 858.62 608.96C852.08 626.85 636.42 661.96 636.42 661.96Z" fill="#25354D"/>
<path id="Vector_52" d="M777.29 666.21C793.06 671.75 853.34 676.2 860.87 674.51C868.39 672.82 883.4 665.58 894.27 653.76C905.14 641.94 860.81 608.38 860.81 608.38C860.81 608.38 839.83 611.4 834.43 611.81C828.91 612.23 797.66 614.74 782.59 616.19C767.52 617.64 737.92 616.77 732.05 619.35C726.18 621.93 692.24 633.43 681.13 637.02C670.02 640.61 597.84 653.82 597.84 653.82C597.84 653.82 596.6 663.6 602.99 671.11C602.99 671.11 634.63 670.62 651.6 670.74" fill="#2F4563"/>
<path id="Vector_53" d="M602.98 671.12C602.98 671.12 600.29 663.49 600.54 659.46C600.79 655.44 599.56 653.51 599.56 653.51C599.56 653.51 583.38 646.23 578.54 638.82C573.7 631.41 564.33 612.16 556.84 615.36C549.35 618.56 555.21 641.35 560.13 649.02C565.05 656.69 568.08 677.1 576.19 678.28C584.29 679.46 599.01 670.78 602.98 671.12Z" fill="#EDABAF"/>
<path id="Vector_54" d="M907.97 594.95C907.97 594.95 934.49 655.13 893.32 669.73C860.48 681.37 799.95 670.65 799.95 670.65L837.19 611.97L907.97 594.95Z" fill="#2F4563"/>
<path id="Vector_55" d="M854.9 441.63L835.26 461.84C835.08 458.13 833.72 453.62 832.32 449.85C831.63 448.01 830.93 446.34 830.37 445.05C829.62 443.35 829.1 442.3 829.1 442.3L846.62 423.78L854.9 441.63Z" fill="#EDABAF"/>
<path id="Vector_56" d="M834.83 566.76C834.83 576.51 838.94 596.82 836.58 611.6C836.58 611.6 905.44 619.59 912.36 607.56C912.36 607.56 903.82 568.88 899.78 559.18C895.75 549.49 887.31 491.49 883.69 481.63C880.07 471.77 871.54 462.23 866.32 455.39C861.66 449.28 853.17 437.91 853.17 437.91L834.82 456.5" fill="#8181D1"/>
<path id="Vector_57" d="M822.92 369.89C813.83 370.5 794.31 377.36 793.99 401.66C793.99 401.66 795.46 408.03 797.61 412.93C799.76 417.82 796.95 433.31 798.22 433.9C799.49 434.5 804.5 434.88 804.5 434.88C804.5 434.88 811.66 450.61 817.38 449.81C823.1 449.01 844.3 442.02 852.18 420.51C860.06 399 859.62 367.44 822.92 369.89Z" fill="#EDABAF"/>
<path id="Vector_58" d="M794 401.67C794 401.67 809.83 409.98 824.62 410.31C839.41 410.65 851.54 434.36 851.54 434.36C851.54 434.36 869.45 394.18 848.94 373.79C828.48 353.46 787.6 374.14 794 401.67Z" fill="#261D19"/>
<path id="Vector_59" d="M844.42 433.82C844.14 434.28 836.94 446.08 832.33 449.85C831.64 448.01 830.94 446.34 830.38 445.05C830.38 445.06 840.67 438.92 844.42 433.82Z" fill="#B07F82"/>
<path id="Vector_60" d="M697.816 631.317L794.032 613.152L792.451 604.781L696.235 622.945L697.816 631.317Z" fill="#9191A7"/>
<path id="Vector_61" d="M642.351 550.58L697.725 631.335L704.751 626.517L649.378 545.762L642.351 550.58Z" fill="#9191A7"/>
<path id="Vector_62" d="M716.16 619.15C715.68 617.01 716.16 613.44 722.89 609.84C729.62 606.23 744.17 598.03 749.28 597.83C754.39 597.63 764.47 598.44 766.54 598.43C768.61 598.42 763.3 610.6 763.3 610.6L716.16 619.15Z" fill="#EDABAF"/>
<path id="Vector_63" d="M764.18 599.36C764.18 599.36 792.25 588.31 796.81 586.11C801.37 583.91 822.63 576.76 824.51 575.82C826.4 574.88 835.28 521.8 836.07 508.44C836.86 495.08 837.64 466.79 852.73 468.04C867.82 469.3 871.44 479.2 869.55 498.69C867.66 518.18 856.5 587.97 851.79 590.33C847.07 592.69 792.94 604.8 764.4 610.49C737.09 615.94 764.18 599.36 764.18 599.36Z" fill="#EDABAF"/>
<path id="Vector_64" d="M834.53 512.59C834.53 512.59 856.28 516.65 868.81 517.91C868.81 517.91 884.41 473.47 863.17 466.37C838 457.96 832.38 492.4 834.53 512.59Z" fill="#8181D1"/>
<path id="Vector_65" d="M918.25 654.36C919.56 661.21 923.6 667.51 929.95 671.52C942.12 679.22 958.23 675.58 965.92 663.4L1026.7 567.15C1033.49 556.38 1031.44 542.57 1022.47 534.19H1022.46C1021.29 533.08 1019.98 532.08 1018.57 531.18C1016.39 529.81 1014.1 528.8 1011.75 528.13C1000.92 525.06 988.92 529.3 982.6 539.3L921.82 635.55C918.14 641.38 917.06 648.1 918.25 654.36Z" fill="#F4EAE1"/>
<path id="Vector_66" d="M918.25 654.36C919.56 661.21 923.6 667.51 929.95 671.52C942.12 679.22 958.23 675.58 965.92 663.4L1026.7 567.15C1033.49 556.38 1031.44 542.57 1022.47 534.19H1022.46C1022.46 534.19 996.96 617.57 918.25 654.36Z" fill="#E6DCD4"/>
<g id="Group_48">
<path id="Vector_67" d="M502.18 671.96C502.83 669.39 498.43 666.54 495.72 665.63C484.93 662.33 492.39 654.1 489.39 643.62C486.12 630.73 475.34 622.75 465.66 619.37C477.42 622.92 488.38 632.77 490.46 644.14C491.48 649.49 491.1 654.1 490.83 655.44C490.28 658.14 490.66 661.78 492.98 663.39C494.55 664.51 500.3 665.04 502.77 669.59C504.17 672.54 502.48 674.39 499.34 675.33C491.5 677.62 458.83 675.83 453.42 671.01C458.34 675.01 500.6 678.31 502.18 671.96Z" fill="#424242"/>
<g id="Group_49">
<path id="Vector_68" d="M472.2 599.34C472.2 599.34 489.81 592.74 499.06 592.08C508.31 591.42 511.01 586.1 511.01 586.1L541.67 589.7C541.67 589.7 540.03 594.72 541.67 598.98C543.31 603.24 549.55 608.23 540.56 624.07C531.57 639.92 528.22 643.74 528.28 659.44C528.32 671.32 537.37 671.33 536.49 673.97C535.61 676.61 523.06 676.61 520.86 673.97C518.66 671.33 490.04 672.21 483.88 672.21C477.72 672.21 456.36 674.85 451.74 669.79C447.1 664.72 435.39 616.78 472.2 599.34Z" fill="#FF8133"/>
<path id="Vector_69" d="M517.76 554.4C520.16 553.54 522.73 553.27 525.27 553.52C532.72 554.25 552.95 557.86 548.8 575.35C543.74 596.7 527.01 599.12 517.98 593.4C508.95 587.68 506.31 576.01 507.41 568.74C508.33 562.73 510.9 556.86 517.76 554.4Z" fill="#FF8133"/>
<path id="Vector_70" d="M511.16 540.28C516.88 543.36 521.9 553.5 521.9 553.5L509.95 560.91C509.96 560.91 505.44 537.19 511.16 540.28Z" fill="#FF8133"/>
<path id="Vector_71" d="M557.1 550.46C564.29 550.85 549.22 568.84 549.22 568.84L540.55 557.69C540.55 557.69 549.9 550.07 557.1 550.46Z" fill="#FF8133"/>
<path id="Vector_72" d="M490.32 655.33C490.32 655.33 488.56 663.29 494.87 664.81C501.18 666.33 507.34 673.23 497.95 675.14C488.56 677.05 458.21 675.24 453.43 671.01L465.67 619.38C465.67 619.38 493.99 627.89 490.32 655.33Z" fill="#FF8133"/>
<path id="Vector_73" d="M515.07 667.82C525.73 677.67 511.46 676.61 508.26 675.9C505.07 675.19 505.72 672.13 503.76 666.57C501.8 661.01 497.51 612.33 497.51 612.33L518.96 613.21C519.71 618.64 504.41 657.97 515.07 667.82Z" fill="#FF8133"/>
</g>
<path id="Vector_74" d="M505.05 668.94C506.18 673.09 506.06 674.78 508.37 675.36C510.56 675.85 515.13 676.07 517.25 675.07C519.89 673.84 517.44 670.87 515.36 668.83C503.22 656.69 519.67 619.57 518.96 613.2C519.79 618.75 505.96 655.5 514.62 666.54C515.77 667.9 520.04 671.24 519.45 674.1C518.65 677.73 510.01 677.04 507.55 676.24C505.12 675.37 505.23 673.45 503.07 666.04C500.84 655.81 498.27 622.82 497.52 612.32C503.66 668.4 503.21 662.13 505.05 668.94Z" fill="#424242"/>
<path id="Vector_75" d="M518.59 564.95C521.12 565.56 520.57 568.14 520.57 568.14C520.07 569.68 518.42 570.18 517.27 569.79C516.12 569.4 515.67 568.52 515.51 567.53C515.34 566.54 516.06 564.34 518.59 564.95Z" fill="#363636"/>
<path id="Vector_76" d="M538.18 570.02C540.71 570.62 540.16 573.21 540.16 573.21C539.66 574.75 538.01 575.25 536.86 574.86C535.7 574.48 535.26 573.59 535.1 572.6C534.94 571.62 535.65 569.41 538.18 570.02Z" fill="#363636"/>
<path id="Vector_77" d="M523.2 575.9C524.56 575.73 527.21 576.74 528.35 577.21C528.91 577.44 529.18 578.12 528.88 578.65C528.03 580.14 524.54 581.34 524.3 581.25C524 581.15 521.43 576.12 523.2 575.9Z" fill="#363636"/>
</g>
<path id="Vector_78" d="M277 806H201V815H277V806Z" fill="#F1A34F"/>
<path id="Vector_79" d="M526 277H400V423H526V277Z" fill="white"/>
<path id="Vector_80" d="M406.9 415L519.1 284.99V415H406.9Z" fill="#E1F3F5"/>
<path id="Vector_81" d="M794.92 414.96C796.26 414.51 797.61 414.05 798.99 413.58C798.93 413.38 798.9 413.24 798.85 413.09C798.49 412.01 798.11 410.93 797.76 409.84C797.52 409.08 797.96 408.44 798.75 408.36C799.27 408.31 799.7 408.6 799.89 409.16C800.23 410.16 800.57 411.17 800.91 412.17C800.96 412.31 801.01 412.46 801.07 412.64C802.04 412.36 802.98 412.09 803.91 411.81C810.73 409.78 817.54 407.75 824.37 405.73C826.01 405.24 827.66 404.75 829.34 404.4C831.15 404.02 832.83 404.29 834.38 405.2C837.13 406.83 839.95 408.36 842.73 409.95C843.06 410.14 843.36 410.4 843.6 410.69C843.9 411.05 843.89 411.5 843.63 411.92C843.38 412.33 842.98 412.6 842.49 412.55C842.04 412.5 841.56 412.4 841.18 412.19C838.61 410.76 836.04 409.33 833.5 407.85C831.92 406.92 830.18 406.85 828.37 407.26C826.46 407.7 824.57 408.24 822.67 408.74C822.18 408.87 821.68 408.98 821.2 409.15C820.5 409.41 819.94 409.79 819.77 410.57C819.7 410.88 819.35 411.24 819.03 411.41C818.1 411.89 817.15 412.37 816.16 412.68C811.78 414.07 807.39 415.4 803 416.76C802.87 416.8 802.74 416.85 802.55 416.91C802.59 417.07 802.63 417.23 802.68 417.38C803.67 420.3 804.65 423.22 805.64 426.14C805.9 426.91 805.58 427.53 804.83 427.68C804.36 427.78 803.93 427.63 803.71 427.26C803.6 427.08 803.53 426.88 803.46 426.69C802.14 422.8 800.83 418.9 799.51 415C799.28 414.32 799.4 414.36 798.62 414.62C798.48 414.67 798.33 414.72 798.14 414.78C798.51 415.89 798.87 416.95 799.25 418.07C798.24 418.41 797.28 418.74 796.32 419.06C795.85 417.7 795.39 416.33 794.92 414.96Z" fill="black"/>
<path id="Vector_82" d="M828.07 410.17C827.82 407.34 830.47 402.75 835.53 406.07C840.59 409.39 835.93 423.51 831.99 422.63C828.06 421.75 828.33 413.09 828.07 410.17Z" fill="#EDABAF"/>
<g id="Tail2">
<path id="Tail" d="M413.47 566.59C423.57 568.84 417.55 594.19 424.32 629.64C431.09 665.09 452.45 670.63 452.45 670.63C452.45 670.63 442.96 654.91 444 638.48C444.81 625.64 460.37 590.6 444.99 567.7C433.11 550.01 412.18 566.07 412.18 566.07L413.47 566.59Z" fill="#FF8133"/>
</g>
</g>
<defs>
<linearGradient id="paint0_linear_1_2" x1="1087.48" y1="781.509" x2="1175.41" y2="781.509" gradientUnits="userSpaceOnUse">
<stop stop-color="white"/>
<stop offset="0.9948"/>
</linearGradient>
</defs>
</svg>
