<svg id="visual" viewBox="0 0 960 50" width="960" height="50" xmlns="http://www.w3.org/2000/svg" xmlns:xlink="http://www.w3.org/1999/xlink" version="1.1"><rect x="0" y="0" width="960" height="50" fill="#82d4bb"></rect><path d="M0 40L11.5 37.3C23 34.7 46 29.3 68.8 29C91.7 28.7 114.3 33.3 137.2 33.7C160 34 183 30 205.8 30.5C228.7 31 251.3 36 274.2 35.2C297 34.3 320 27.7 342.8 27C365.7 26.3 388.3 31.7 411.2 32.5C434 33.3 457 29.7 480 26.5C503 23.3 526 20.7 548.8 20C571.7 19.3 594.3 20.7 617.2 22.7C640 24.7 663 27.3 685.8 29C708.7 30.7 731.3 31.3 754.2 31.7C777 32 800 32 822.8 33.8C845.7 35.7 868.3 39.3 891.2 39.8C914 40.3 937 37.7 948.5 36.3L960 35L960 51L948.5 51C937 51 914 51 891.2 51C868.3 51 845.7 51 822.8 51C800 51 777 51 754.2 51C731.3 51 708.7 51 685.8 51C663 51 640 51 617.2 51C594.3 51 571.7 51 548.8 51C526 51 503 51 480 51C457 51 434 51 411.2 51C388.3 51 365.7 51 342.8 51C320 51 297 51 274.2 51C251.3 51 228.7 51 205.8 51C183 51 160 51 137.2 51C114.3 51 91.7 51 68.8 51C46 51 23 51 11.5 51L0 51Z" fill="#edf2fb" stroke-linecap="round" stroke-linejoin="miter"></path></svg>