<svg id="visual" viewBox="0 0 960 50" width="960" height="50" xmlns="http://www.w3.org/2000/svg" xmlns:xlink="http://www.w3.org/1999/xlink" version="1.1"><rect x="0" y="0" width="960" height="50" fill="#FFFFFF"></rect><path d="M0 0L26.7 3.8C53.3 7.7 106.7 15.3 160 23.3C213.3 31.3 266.7 39.7 320 35.8C373.3 32 426.7 16 480 9.2C533.3 2.3 586.7 4.7 640 7.7C693.3 10.7 746.7 14.3 800 20.3C853.3 26.3 906.7 34.7 933.3 38.8L960 43L960 51L933.3 51C906.7 51 853.3 51 800 51C746.7 51 693.3 51 640 51C586.7 51 533.3 51 480 51C426.7 51 373.3 51 320 51C266.7 51 213.3 51 160 51C106.7 51 53.3 51 26.7 51L0 51Z" fill="#f9f9f9" stroke-linecap="round" stroke-linejoin="miter"></path></svg>